RobotoSerifMicroWide-Regular.ufo
<glyph name="exclam" format="2">
  <advance width="355"/>
  <unicode hex="0021"/>
  <outline>
    <contour>
      <point x="236" y="755" type="line"/>
      <point x="236" y="573"/>
      <point x="213" y="476"/>
      <point x="213" y="257" type="curve"/>
      <point x="141" y="257" type="line"/>
      <point x="141" y="476"/>
      <point x="119" y="572"/>
      <point x="119" y="755" type="curve"/>
    </contour>
    <component base="period" xOffset="10"/>
  </outline>
</glyph>
<glyph name="comma" format="2">
  <advance width="360"/>
  <unicode hex="002C"/>
  <outline>
    <contour>
      <point x="126" y="-183" type="line"/>
      <point x="240" y="-131"/>
      <point x="283" y="-69"/>
      <point x="283" y="39" type="curve" smooth="yes"/>
      <point x="283" y="116"/>
      <point x="243" y="149"/>
      <point x="183" y="149" type="curve" smooth="yes"/>
      <point x="126" y="149"/>
      <point x="90" y="118"/>
      <point x="90" y="72" type="curve" smooth="yes"/>
      <point x="90" y="29"/>
      <point x="123" y="4"/>
      <point x="169" y="4" type="curve" smooth="yes"/>
      <point x="199" y="4"/>
      <point x="225" y="16"/>
      <point x="229" y="47" type="curve"/>
      <point x="227" y="51"/>
      <point x="219" y="42"/>
      <point x="219" y="27" type="curve" smooth="yes"/>
      <point x="219" y="-59"/>
      <point x="180" y="-95"/>
      <point x="58" y="-128" type="curve"/>
    </contour>
  </outline>
</glyph>
<glyph name="one" format="2">
  <advance width="594"/>
  <unicode hex="0031"/>
  <outline>
    <contour>
      <point x="372" y="91" type="curve" smooth="yes"/>
      <point x="372" y="668" type="line"/>
      <point x="310" y="668" type="line"/>
      <point x="273" y="597"/>
      <point x="202" y="575"/>
      <point x="86" y="573" type="curve"/>
      <point x="86" y="505" type="line"/>
      <point x="193" y="505"/>
      <point x="279" y="540"/>
      <point x="296" y="614" type="curve"/>
      <point x="281" y="601" type="line"/>
      <point x="281" y="91" type="line" smooth="yes"/>
      <point x="281" y="62"/>
      <point x="239" y="55"/>
      <point x="168" y="55" type="curve" smooth="yes"/>
      <point x="106" y="55" type="line"/>
      <point x="106" y="0" type="line"/>
      <point x="537" y="0" type="line"/>
      <point x="537" y="55" type="line"/>
      <point x="495" y="55" type="line"/>
      <point x="418" y="55"/>
      <point x="372" y="62"/>
    </contour>
  </outline>
</glyph>
<glyph name="six" format="2">
  <advance width="593"/>
  <unicode hex="0036"/>
  <outline>
    <contour>
      <point x="493" y="683" type="line"/>
      <point x="263" y="658"/>
      <point x="148" y="574"/>
      <point x="148" y="295" type="curve" smooth="yes"/>
      <point x="148" y="105"/>
      <point x="202" y="48"/>
      <point x="310" y="48" type="curve" smooth="yes"/>
      <point x="414" y="48"/>
      <point x="453" y="128"/>
      <point x="453" y="241" type="curve" smooth="yes"/>
      <point x="453" y="340"/>
      <point x="431" y="410"/>
      <point x="325" y="410" type="curve" smooth="yes"/>
      <point x="234" y="410"/>
      <point x="190" y="363"/>
      <point x="127" y="244" type="curve"/>
      <point x="123" y="290" type="line"/>
      <point x="173" y="400"/>
      <point x="234" y="468"/>
      <point x="341" y="468" type="curve" smooth="yes"/>
      <point x="475" y="468"/>
      <point x="549" y="382"/>
      <point x="549" y="241" type="curve" smooth="yes"/>
      <point x="549" y="97"/>
      <point x="462" y="-10"/>
      <point x="311" y="-10" type="curve" smooth="yes"/>
      <point x="153" y="-10"/>
      <point x="56" y="76"/>
      <point x="56" y="295" type="curve" smooth="yes"/>
      <point x="56" y="588"/>
      <point x="205" y="711"/>
      <point x="483" y="740" type="curve"/>
    </contour>
  </outline>
</glyph>
<glyph name="less" format="2">
  <advance width="594"/>
  <unicode hex="003C"/>
  <outline>
    <contour>
      <point x="515" y="564" type="line"/>
      <point x="78" y="375" type="line"/>
      <point x="78" y="334" type="line"/>
      <point x="99" y="318" type="line"/>
      <point x="515" y="493" type="line"/>
    </contour>
    <contour>
      <point x="515" y="184" type="line"/>
      <point x="100" y="359" type="line"/>
      <point x="78" y="342" type="line"/>
      <point x="78" y="295" type="line"/>
      <point x="515" y="106" type="line"/>
    </contour>
  </outline>
</glyph>
<glyph name="E" format="2">
  <advance width="755"/>
  <unicode hex="0045"/>
  <anchor x="445" y="741" name="top"/>
  <anchor x="517" y="0" name="right"/>
  <anchor x="445" y="0" name="bottom"/>
  <outline>
    <contour>
      <point x="678" y="226" type="line"/>
      <point x="611" y="226" type="line"/>
      <point x="595" y="104" type="line" smooth="yes"/>
      <point x="589" y="68"/>
      <point x="553" y="59"/>
      <point x="462" y="59" type="curve" smooth="yes"/>
      <point x="257" y="59" type="line"/>
      <point x="257" y="651" type="line"/>
      <point x="445" y="651" type="line" smooth="yes"/>
      <point x="536" y="651"/>
      <point x="572" y="642"/>
      <point x="578" y="606" type="curve" smooth="yes"/>
      <point x="591" y="509" type="line"/>
      <point x="656" y="509" type="line"/>
      <point x="656" y="710" type="line"/>
      <point x="62" y="710" type="line"/>
      <point x="62" y="650" type="line"/>
      <point x="74" y="650" type="line" smooth="yes"/>
      <point x="126" y="650"/>
      <point x="164" y="643"/>
      <point x="164" y="614" type="curve" smooth="yes"/>
      <point x="164" y="96" type="line" smooth="yes"/>
      <point x="164" y="67"/>
      <point x="126" y="60"/>
      <point x="74" y="60" type="curve" smooth="yes"/>
      <point x="62" y="60" type="line"/>
      <point x="62" y="0" type="line"/>
      <point x="678" y="0" type="line"/>
    </contour>
    <contour>
      <point x="238" y="393" type="curve"/>
      <point x="238" y="338" type="line"/>
      <point x="343" y="333"/>
      <point x="448" y="328"/>
      <point x="552" y="323" type="curve"/>
      <point x="552" y="407" type="line"/>
      <point x="448" y="402"/>
      <point x="343" y="397"/>
    </contour>
  </outline>
</glyph>
<glyph name="K" format="2">
  <advance width="836"/>
  <unicode hex="004B"/>
  <anchor x="429" y="741" name="top"/>
  <anchor x="429" y="0" name="bottom"/>
  <outline>
    <contour>
      <point x="62" y="0" type="line"/>
      <point x="354" y="0" type="line"/>
      <point x="354" y="60" type="line"/>
      <point x="344" y="60" type="line" smooth="yes"/>
      <point x="308" y="60"/>
      <point x="257" y="63"/>
      <point x="257" y="70" type="curve" smooth="yes"/>
      <point x="257" y="640" type="line" smooth="yes"/>
      <point x="257" y="647"/>
      <point x="308" y="650"/>
      <point x="344" y="650" type="curve" smooth="yes"/>
      <point x="354" y="650" type="line"/>
      <point x="354" y="710" type="line"/>
      <point x="62" y="710" type="line"/>
      <point x="62" y="650" type="line"/>
      <point x="74" y="650" type="line" smooth="yes"/>
      <point x="126" y="650"/>
      <point x="164" y="643"/>
      <point x="164" y="614" type="curve" smooth="yes"/>
      <point x="164" y="96" type="line" smooth="yes"/>
      <point x="164" y="67"/>
      <point x="126" y="60"/>
      <point x="74" y="60" type="curve" smooth="yes"/>
      <point x="62" y="60" type="line"/>
    </contour>
    <contour>
      <point x="490" y="0" type="line"/>
      <point x="804" y="0" type="line"/>
      <point x="804" y="60" type="line"/>
      <point x="784" y="60" type="line" smooth="yes"/>
      <point x="747" y="60"/>
      <point x="724" y="62"/>
      <point x="704" y="82" type="curve" smooth="yes"/>
      <point x="380" y="398" type="line"/>
      <point x="373" y="355" type="line"/>
      <point x="663" y="621" type="line" smooth="yes"/>
      <point x="687" y="642"/>
      <point x="709" y="650"/>
      <point x="743" y="650" type="curve" smooth="yes"/>
      <point x="775" y="650" type="line"/>
      <point x="775" y="710" type="line"/>
      <point x="503" y="710" type="line"/>
      <point x="503" y="650" type="line"/>
      <point x="513" y="650" type="line" smooth="yes"/>
      <point x="557" y="650"/>
      <point x="601" y="646"/>
      <point x="601" y="639" type="curve"/>
      <point x="311" y="372" type="line"/>
      <point x="311" y="345" type="line"/>
      <point x="591" y="70" type="line"/>
      <point x="591" y="63"/>
      <point x="545" y="60"/>
      <point x="501" y="60" type="curve" smooth="yes"/>
      <point x="490" y="60" type="line"/>
    </contour>
  </outline>
</glyph>
<glyph name="L" format="2">
  <advance width="706"/>
  <unicode hex="004C"/>
  <anchor x="425" y="741" name="top"/>
  <anchor x="524" y="710" name="right"/>
  <anchor x="524" y="410" name="mid"/>
  <anchor x="425" y="0" name="bottom"/>
  <outline>
    <contour>
      <point x="371" y="710" type="line"/>
      <point x="371" y="650" type="line"/>
      <point x="353" y="650" type="line" smooth="yes"/>
      <point x="297" y="650"/>
      <point x="257" y="643"/>
      <point x="257" y="614" type="curve" smooth="yes"/>
      <point x="257" y="59" type="line"/>
      <point x="434" y="59" type="line" smooth="yes"/>
      <point x="525" y="59"/>
      <point x="562" y="68"/>
      <point x="567" y="104" type="curve" smooth="yes"/>
      <point x="583" y="237" type="line"/>
      <point x="650" y="237" type="line"/>
      <point x="650" y="0" type="line"/>
      <point x="62" y="0" type="line"/>
      <point x="62" y="60" type="line"/>
      <point x="74" y="60" type="line" smooth="yes"/>
      <point x="126" y="60"/>
      <point x="164" y="67"/>
      <point x="164" y="96" type="curve" smooth="yes"/>
      <point x="164" y="614" type="line" smooth="yes"/>
      <point x="164" y="643"/>
      <point x="126" y="650"/>
      <point x="74" y="650" type="curve" smooth="yes"/>
      <point x="62" y="650" type="line"/>
      <point x="62" y="710" type="line"/>
    </contour>
  </outline>
</glyph>
<glyph name="Z" format="2">
  <advance width="718"/>
  <unicode hex="005A"/>
  <anchor x="376" y="741" name="top"/>
  <anchor x="376" y="0" name="bottom"/>
  <outline>
    <contour>
      <point x="122" y="59" type="line"/>
      <point x="134" y="24" type="line"/>
      <point x="634" y="640" type="line"/>
      <point x="634" y="710" type="line"/>
      <point x="84" y="710" type="line"/>
      <point x="84" y="501" type="line"/>
      <point x="149" y="501" type="line"/>
      <point x="163" y="603" type="line" smooth="yes"/>
      <point x="168" y="641"/>
      <point x="204" y="651"/>
      <point x="296" y="651" type="curve" smooth="yes"/>
      <point x="573" y="651" type="line"/>
      <point x="554" y="673" type="line"/>
      <point x="67" y="73" type="line"/>
      <point x="67" y="0" type="line"/>
      <point x="651" y="0" type="line"/>
      <point x="651" y="229" type="line"/>
      <point x="584" y="229" type="line"/>
      <point x="568" y="104" type="line" smooth="yes"/>
      <point x="563" y="68"/>
      <point x="526" y="59"/>
      <point x="435" y="59" type="curve" smooth="yes"/>
    </contour>
  </outline>
</glyph>
<glyph name="asciicircum" format="2">
  <advance width="574"/>
  <unicode hex="005E"/>
  <outline>
    <contour>
      <point x="140" y="314" type="line"/>
      <point x="301" y="685" type="line"/>
      <point x="296" y="710" type="line"/>
      <point x="235" y="710" type="line"/>
      <point x="55" y="314" type="line"/>
    </contour>
    <contour>
      <point x="431" y="314" type="line"/>
      <point x="519" y="314" type="line"/>
      <point x="340" y="710" type="line"/>
      <point x="275" y="710" type="line"/>
      <point x="268" y="686" type="line"/>
    </contour>
  </outline>
</glyph>
<glyph name="j" format="2">
  <advance width="366"/>
  <unicode hex="006A"/>
  <anchor x="191" y="551" name="top"/>
  <outline>
    <contour>
      <point x="157" y="-79" type="line" smooth="yes"/>
      <point x="157" y="-167"/>
      <point x="114" y="-189"/>
      <point x="44" y="-189" type="curve" smooth="yes"/>
      <point x="-3" y="-189"/>
      <point x="-40" y="-181"/>
      <point x="-62" y="-175" type="curve"/>
      <point x="-62" y="-237" type="line"/>
      <point x="-45" y="-243"/>
      <point x="0" y="-250"/>
      <point x="44" y="-250" type="curve" smooth="yes"/>
      <point x="144" y="-250"/>
      <point x="244" y="-211"/>
      <point x="244" y="-79" type="curve" smooth="yes"/>
      <point x="244" y="565" type="line"/>
      <point x="44" y="565" type="line"/>
      <point x="44" y="509" type="line"/>
      <point x="60" y="507" type="line" smooth="yes"/>
      <point x="117" y="499"/>
      <point x="157" y="491"/>
      <point x="157" y="462" type="curve" smooth="yes"/>
    </contour>
    <contour>
      <point x="188" y="677" type="curve" smooth="yes"/>
      <point x="229" y="677"/>
      <point x="259" y="696"/>
      <point x="259" y="742" type="curve" smooth="yes"/>
      <point x="259" y="786"/>
      <point x="229" y="807"/>
      <point x="188" y="807" type="curve" smooth="yes"/>
      <point x="145" y="807"/>
      <point x="117" y="786"/>
      <point x="117" y="742" type="curve" smooth="yes"/>
      <point x="117" y="696"/>
      <point x="145" y="677"/>
    </contour>
  </outline>
</glyph>
<glyph name="w" format="2">
  <advance width="1024"/>
  <unicode hex="0077"/>
  <anchor x="515" y="551" name="top"/>
  <outline>
    <contour>
      <point x="527" y="531" type="line"/>
      <point x="353" y="-13" type="line"/>
      <point x="249" y="-13" type="line"/>
      <point x="123" y="452" type="line" smooth="yes"/>
      <point x="111" y="497"/>
      <point x="79" y="507"/>
      <point x="29" y="507" type="curve" smooth="yes"/>
      <point x="22" y="507" type="line"/>
      <point x="22" y="565" type="line"/>
      <point x="291" y="565" type="line"/>
      <point x="291" y="507" type="line"/>
      <point x="283" y="507" type="line" smooth="yes"/>
      <point x="235" y="507"/>
      <point x="194" y="506"/>
      <point x="194" y="499" type="curve"/>
      <point x="322" y="16" type="line"/>
      <point x="305" y="36" type="line"/>
      <point x="468" y="565" type="line"/>
      <point x="571" y="565" type="line"/>
      <point x="730" y="16" type="line"/>
      <point x="715" y="36" type="line"/>
      <point x="840" y="485" type="line"/>
      <point x="841" y="497"/>
      <point x="799" y="507"/>
      <point x="755" y="507" type="curve" smooth="yes"/>
      <point x="747" y="507" type="line"/>
      <point x="747" y="565" type="line"/>
      <point x="1003" y="565" type="line"/>
      <point x="1003" y="507" type="line"/>
      <point x="995" y="507" type="line" smooth="yes"/>
      <point x="945" y="507"/>
      <point x="916" y="496"/>
      <point x="902" y="450" type="curve" smooth="yes"/>
      <point x="764" y="-13" type="line"/>
      <point x="659" y="-13" type="line"/>
      <point x="502" y="519" type="line"/>
    </contour>
  </outline>
</glyph>
<glyph name="x" format="2">
  <advance width="716"/>
  <unicode hex="0078"/>
  <outline>
    <contour>
      <point x="680" y="0" type="line"/>
      <point x="680" y="58" type="line"/>
      <point x="674" y="58" type="line"/>
      <point x="626" y="58"/>
      <point x="610" y="67"/>
      <point x="589" y="91" type="curve" smooth="yes"/>
      <point x="393" y="309" type="line"/>
      <point x="383" y="312" type="line"/>
      <point x="218" y="500" type="line"/>
      <point x="218" y="506"/>
      <point x="262" y="507"/>
      <point x="300" y="507" type="curve" smooth="yes"/>
      <point x="302" y="507" type="line"/>
      <point x="302" y="565" type="line"/>
      <point x="52" y="565" type="line"/>
      <point x="52" y="507" type="line"/>
      <point x="57" y="507" type="line"/>
      <point x="101" y="507"/>
      <point x="118" y="497"/>
      <point x="139" y="473" type="curve" smooth="yes"/>
      <point x="319" y="269" type="line"/>
      <point x="330" y="267" type="line"/>
      <point x="509" y="65" type="line"/>
      <point x="509" y="59"/>
      <point x="465" y="58"/>
      <point x="427" y="58" type="curve" smooth="yes"/>
      <point x="424" y="58" type="line"/>
      <point x="424" y="0" type="line"/>
    </contour>
    <contour>
      <point x="37" y="0" type="line"/>
      <point x="287" y="0" type="line"/>
      <point x="287" y="58" type="line"/>
      <point x="284" y="58" type="line"/>
      <point x="238" y="58"/>
      <point x="195" y="70"/>
      <point x="195" y="83" type="curve"/>
      <point x="354" y="266" type="line"/>
      <point x="306" y="298" type="line"/>
      <point x="131" y="100" type="line" smooth="yes"/>
      <point x="104" y="68"/>
      <point x="87" y="58"/>
      <point x="42" y="58" type="curve"/>
      <point x="37" y="58" type="line"/>
    </contour>
    <contour>
      <point x="403" y="284" type="line"/>
      <point x="579" y="476" type="line" smooth="yes"/>
      <point x="601" y="501"/>
      <point x="625" y="507"/>
      <point x="656" y="507" type="curve"/>
      <point x="661" y="507" type="line"/>
      <point x="661" y="565" type="line"/>
      <point x="419" y="565" type="line"/>
      <point x="419" y="507" type="line"/>
      <point x="423" y="507" type="line"/>
      <point x="467" y="507"/>
      <point x="510" y="496"/>
      <point x="510" y="484" type="curve"/>
      <point x="356" y="318" type="line"/>
    </contour>
  </outline>
</glyph>
<glyph name="asciitilde" format="2">
  <advance width="570"/>
  <unicode hex="007E"/>
  <outline>
    <contour>
      <point x="381" y="247" type="curve" smooth="yes"/>
      <point x="473" y="247"/>
      <point x="516" y="337"/>
      <point x="530" y="453" type="curve"/>
      <point x="471" y="468" type="line"/>
      <point x="458" y="403"/>
      <point x="447" y="322"/>
      <point x="391" y="322" type="curve" smooth="yes"/>
      <point x="319" y="322"/>
      <point x="314" y="471"/>
      <point x="193" y="471" type="curve" smooth="yes"/>
      <point x="99" y="471"/>
      <point x="58" y="387"/>
      <point x="51" y="266" type="curve"/>
      <point x="111" y="252" type="line"/>
      <point x="119" y="322"/>
      <point x="129" y="397"/>
      <point x="183" y="397" type="curve" smooth="yes"/>
      <point x="253" y="397"/>
      <point x="264" y="247"/>
    </contour>
  </outline>
</glyph>
<glyph name="section" format="2">
  <advance width="680"/>
  <unicode hex="00A7"/>
  <outline>
    <contour>
      <point x="308" y="432" type="line"/>
      <point x="163" y="439"/>
      <point x="49" y="394"/>
      <point x="49" y="282" type="curve" smooth="yes"/>
      <point x="49" y="164"/>
      <point x="156" y="120"/>
      <point x="278" y="84" type="curve" smooth="yes"/>
      <point x="385" y="52"/>
      <point x="474" y="30"/>
      <point x="474" y="-68" type="curve" smooth="yes"/>
      <point x="474" y="-141"/>
      <point x="425" y="-178"/>
      <point x="323" y="-178" type="curve" smooth="yes"/>
      <point x="239" y="-178"/>
      <point x="181" y="-161"/>
      <point x="141" y="-130" type="curve"/>
      <point x="129" y="-130"/>
      <point x="152" y="-151"/>
      <point x="184" y="-175" type="curve"/>
      <point x="184" y="-34" type="line"/>
      <point x="88" y="-34" type="line"/>
      <point x="88" y="-179" type="line"/>
      <point x="135" y="-205"/>
      <point x="211" y="-236"/>
      <point x="325" y="-236" type="curve" smooth="yes"/>
      <point x="463" y="-236"/>
      <point x="559" y="-167"/>
      <point x="559" y="-53" type="curve" smooth="yes"/>
      <point x="559" y="70"/>
      <point x="449" y="118"/>
      <point x="333" y="152" type="curve" smooth="yes"/>
      <point x="218" y="185"/>
      <point x="134" y="211"/>
      <point x="134" y="293" type="curve" smooth="yes"/>
      <point x="134" y="365"/>
      <point x="200" y="387"/>
      <point x="322" y="394" type="curve"/>
    </contour>
    <contour>
      <point x="421" y="59" type="line"/>
      <point x="553" y="79"/>
      <point x="626" y="119"/>
      <point x="626" y="223" type="curve" smooth="yes"/>
      <point x="626" y="344"/>
      <point x="508" y="377"/>
      <point x="392" y="420" type="curve" smooth="yes"/>
      <point x="293" y="456"/>
      <point x="204" y="477"/>
      <point x="204" y="566" type="curve" smooth="yes"/>
      <point x="204" y="632"/>
      <point x="243" y="663"/>
      <point x="358" y="663" type="curve" smooth="yes"/>
      <point x="440" y="663"/>
      <point x="490" y="648"/>
      <point x="519" y="622" type="curve"/>
      <point x="524" y="631"/>
      <point x="497" y="664"/>
      <point x="467" y="666" type="curve"/>
      <point x="467" y="534" type="line"/>
      <point x="558" y="534" type="line"/>
      <point x="558" y="680" type="line"/>
      <point x="530" y="698"/>
      <point x="463" y="720"/>
      <point x="358" y="720" type="curve" smooth="yes"/>
      <point x="206" y="720"/>
      <point x="118" y="664"/>
      <point x="118" y="558" type="curve" smooth="yes"/>
      <point x="118" y="436"/>
      <point x="230" y="390"/>
      <point x="337" y="352" type="curve" smooth="yes"/>
      <point x="444" y="314"/>
      <point x="541" y="286"/>
      <point x="541" y="209" type="curve" smooth="yes"/>
      <point x="541" y="144"/>
      <point x="497" y="130"/>
      <point x="408" y="107" type="curve"/>
    </contour>
  </outline>
</glyph>
<glyph name="dieresis" format="2">
  <advance width="530"/>
  <unicode hex="00A8"/>
  <anchor x="265" y="526" name="_top"/>
  <outline>
    <contour>
      <point x="124" y="677" type="curve" smooth="yes"/>
      <point x="165" y="677"/>
      <point x="196" y="696"/>
      <point x="196" y="742" type="curve" smooth="yes"/>
      <point x="196" y="786"/>
      <point x="165" y="807"/>
      <point x="124" y="807" type="curve" smooth="yes"/>
      <point x="82" y="807"/>
      <point x="53" y="786"/>
      <point x="53" y="742" type="curve" smooth="yes"/>
      <point x="53" y="696"/>
      <point x="82" y="677"/>
    </contour>
    <contour>
      <point x="406" y="677" type="curve" smooth="yes"/>
      <point x="447" y="677"/>
      <point x="477" y="696"/>
      <point x="477" y="742" type="curve" smooth="yes"/>
      <point x="477" y="786"/>
      <point x="447" y="807"/>
      <point x="406" y="807" type="curve" smooth="yes"/>
      <point x="364" y="807"/>
      <point x="335" y="786"/>
      <point x="335" y="742" type="curve" smooth="yes"/>
      <point x="335" y="696"/>
      <point x="364" y="677"/>
    </contour>
  </outline>
</glyph>
<glyph name="paragraph" format="2">
  <advance width="713"/>
  <unicode hex="00B6"/>
  <outline>
    <contour>
      <point x="360" y="0" type="line"/>
      <point x="294" y="0" type="line"/>
      <point x="294" y="317" type="line"/>
      <point x="289" y="317" type="line" smooth="yes"/>
      <point x="153" y="317"/>
      <point x="65" y="400"/>
      <point x="65" y="519" type="curve" smooth="yes"/>
      <point x="65" y="636"/>
      <point x="149" y="710"/>
      <point x="283" y="710" type="curve" smooth="yes"/>
      <point x="360" y="710" type="line"/>
    </contour>
    <contour>
      <point x="525" y="710" type="line"/>
      <point x="525" y="651" type="line"/>
      <point x="327" y="651" type="line"/>
      <point x="327" y="710" type="line"/>
    </contour>
    <contour>
      <point x="560" y="0" type="line"/>
      <point x="494" y="0" type="line"/>
      <point x="494" y="710" type="line"/>
      <point x="662" y="710" type="line"/>
      <point x="662" y="651" type="line"/>
      <point x="650" y="651" type="line" smooth="yes"/>
      <point x="598" y="651"/>
      <point x="560" y="644"/>
      <point x="560" y="615" type="curve" smooth="yes"/>
    </contour>
  </outline>
</glyph>
<glyph name="Eth" format="2">
  <advance width="856"/>
  <unicode hex="00D0"/>
  <outline>
    <contour>
      <point x="53" y="390" type="line"/>
      <point x="53" y="330" type="line"/>
      <point x="480" y="330" type="line"/>
      <point x="480" y="390" type="line"/>
    </contour>
    <component base="D"/>
  </outline>
</glyph>
<glyph name="multiply" format="2">
  <advance width="594"/>
  <unicode hex="00D7"/>
  <outline>
    <contour>
      <point x="410" y="543" type="line"/>
      <point x="85" y="230" type="line"/>
      <point x="182" y="139" type="line"/>
      <point x="507" y="452" type="line"/>
    </contour>
    <contour>
      <point x="181" y="543" type="line"/>
      <point x="84" y="452" type="line"/>
      <point x="409" y="139" type="line"/>
      <point x="506" y="230" type="line"/>
    </contour>
  </outline>
</glyph>
<glyph name="eth" format="2">
  <advance width="690"/>
  <unicode hex="00F0"/>
  <outline>
    <contour>
      <point x="552" y="428" type="line"/>
      <point x="513" y="495"/>
      <point x="446" y="547"/>
      <point x="345" y="547" type="curve" smooth="yes"/>
      <point x="165" y="547"/>
      <point x="53" y="443"/>
      <point x="53" y="267" type="curve" smooth="yes"/>
      <point x="53" y="91"/>
      <point x="163" y="-13"/>
      <point x="345" y="-13" type="curve" smooth="yes"/>
      <point x="525" y="-13"/>
      <point x="637" y="95"/>
      <point x="637" y="329" type="curve" smooth="yes"/>
      <point x="637" y="639"/>
      <point x="488" y="740"/>
      <point x="231" y="813" type="curve"/>
      <point x="203" y="758" type="line"/>
      <point x="443" y="676"/>
      <point x="543" y="641"/>
      <point x="543" y="329" type="curve" smooth="yes"/>
      <point x="543" y="115"/>
      <point x="483" y="48"/>
      <point x="345" y="48" type="curve" smooth="yes"/>
      <point x="207" y="48"/>
      <point x="147" y="115"/>
      <point x="147" y="267" type="curve" smooth="yes"/>
      <point x="147" y="412"/>
      <point x="207" y="486"/>
      <point x="345" y="486" type="curve" smooth="yes"/>
      <point x="458" y="486"/>
      <point x="514" y="431"/>
      <point x="556" y="368" type="curve"/>
    </contour>
    <contour>
      <point x="163" y="627" type="line"/>
      <point x="183" y="577" type="line"/>
      <point x="613" y="743" type="line"/>
      <point x="593" y="794" type="line"/>
    </contour>
  </outline>
</glyph>
<glyph name="oslash" format="2">
  <advance width="690"/>
  <unicode hex="00F8"/>
  <anchor x="347" y="551" name="top"/>
  <outline>
    <contour>
      <point x="-23" y="-12" type="line"/>
      <point x="57" y="-12" type="line"/>
      <point x="713" y="574" type="line"/>
      <point x="633" y="574" type="line"/>
    </contour>
    <contour>
      <point x="345" y="-13" type="curve" smooth="yes"/>
      <point x="526" y="-13"/>
      <point x="637" y="95"/>
      <point x="637" y="281" type="curve" smooth="yes"/>
      <point x="637" y="450"/>
      <point x="526" y="575"/>
      <point x="345" y="575" type="curve" smooth="yes"/>
      <point x="163" y="575"/>
      <point x="53" y="467"/>
      <point x="53" y="281" type="curve" smooth="yes"/>
      <point x="53" y="112"/>
      <point x="164" y="-13"/>
    </contour>
    <contour>
      <point x="345" y="48" type="curve" smooth="yes"/>
      <point x="197" y="48"/>
      <point x="146" y="106"/>
      <point x="146" y="281" type="curve" smooth="yes"/>
      <point x="146" y="436"/>
      <point x="207" y="514"/>
      <point x="345" y="514" type="curve" smooth="yes"/>
      <point x="493" y="514"/>
      <point x="545" y="454"/>
      <point x="545" y="281" type="curve" smooth="yes"/>
      <point x="545" y="115"/>
      <point x="483" y="48"/>
    </contour>
  </outline>
</glyph>
<glyph name="hbar" format="2">
  <advance width="744"/>
  <unicode hex="0127"/>
  <outline>
    <contour>
      <point x="711" y="0" type="line"/>
      <point x="711" y="49" type="line"/>
      <point x="707" y="49" type="line" smooth="yes"/>
      <point x="647" y="49"/>
      <point x="615" y="65"/>
      <point x="615" y="125" type="curve" smooth="yes"/>
      <point x="615" y="435" type="line" smooth="yes"/>
      <point x="615" y="524"/>
      <point x="563" y="576"/>
      <point x="461" y="576" type="curve" smooth="yes"/>
      <point x="364" y="576"/>
      <point x="281" y="521"/>
      <point x="214" y="424" type="curve"/>
      <point x="215" y="386" type="line"/>
      <point x="290" y="472"/>
      <point x="357" y="509"/>
      <point x="428" y="509" type="curve" smooth="yes"/>
      <point x="500" y="509"/>
      <point x="526" y="479"/>
      <point x="526" y="424" type="curve" smooth="yes"/>
      <point x="526" y="59" type="line" smooth="yes"/>
      <point x="526" y="52"/>
      <point x="479" y="49"/>
      <point x="450" y="49" type="curve" smooth="yes"/>
      <point x="444" y="49" type="line"/>
      <point x="444" y="0" type="line"/>
    </contour>
    <contour>
      <point x="469" y="706" type="line"/>
      <point x="51" y="706" type="line"/>
      <point x="51" y="650" type="line"/>
      <point x="469" y="650" type="line"/>
    </contour>
    <contour>
      <point x="145" y="780" type="line"/>
      <point x="145" y="125" type="line" smooth="yes"/>
      <point x="145" y="65"/>
      <point x="112" y="49"/>
      <point x="53" y="49" type="curve" smooth="yes"/>
      <point x="49" y="49" type="line"/>
      <point x="49" y="0" type="line"/>
      <point x="316" y="0" type="line"/>
      <point x="316" y="49" type="line"/>
      <point x="310" y="49" type="line" smooth="yes"/>
      <point x="281" y="49"/>
      <point x="234" y="52"/>
      <point x="234" y="59" type="curve" smooth="yes"/>
      <point x="234" y="780" type="line"/>
    </contour>
  </outline>
</glyph>
<glyph name="imacron" format="2">
  <advance width="368"/>
  <unicode hex="012B"/>
  <outline>
    <contour>
      <point x="2" y="777" type="line"/>
      <point x="2" y="709" type="line"/>
      <point x="342" y="709" type="line"/>
      <point x="342" y="777" type="line"/>
    </contour>
    <component base="dotlessi"/>
  </outline>
</glyph>
<glyph name="dotlessi" format="2">
  <advance width="368"/>
  <unicode hex="0131"/>
  <anchor x="201" y="530" name="top"/>
  <outline>
    <contour>
      <point x="233" y="565" type="line"/>
      <point x="49" y="565" type="line"/>
      <point x="49" y="509" type="line"/>
      <point x="60" y="507" type="line" smooth="yes"/>
      <point x="117" y="496"/>
      <point x="147" y="491"/>
      <point x="147" y="462" type="curve" smooth="yes"/>
      <point x="147" y="116" type="line" smooth="yes"/>
      <point x="147" y="63"/>
      <point x="114" y="49"/>
      <point x="54" y="49" type="curve" smooth="yes"/>
      <point x="49" y="49" type="line"/>
      <point x="49" y="0" type="line"/>
      <point x="331" y="0" type="line"/>
      <point x="331" y="49" type="line"/>
      <point x="325" y="49" type="line" smooth="yes"/>
      <point x="266" y="49"/>
      <point x="233" y="63"/>
      <point x="233" y="116" type="curve" smooth="yes"/>
    </contour>
  </outline>
</glyph>
<glyph name="Lslash" format="2">
  <advance width="706"/>
  <unicode hex="0141"/>
  <outline>
    <contour>
      <point x="31" y="187" type="line"/>
      <point x="31" y="254" type="line"/>
      <point x="548" y="546" type="line"/>
      <point x="548" y="479" type="line"/>
    </contour>
    <component base="L"/>
  </outline>
</glyph>
<glyph name="Uogonek" format="2">
  <advance width="881"/>
  <unicode hex="0172"/>
  <outline>
    <contour>
      <point x="494" y="-252" type="curve" smooth="yes"/>
      <point x="570" y="-252"/>
      <point x="615" y="-223"/>
      <point x="652" y="-182" type="curve"/>
      <point x="613" y="-148" type="line"/>
      <point x="594" y="-169"/>
      <point x="562" y="-197"/>
      <point x="516" y="-197" type="curve" smooth="yes"/>
      <point x="481" y="-197"/>
      <point x="462" y="-182"/>
      <point x="462" y="-151" type="curve" smooth="yes"/>
      <point x="462" y="-71"/>
      <point x="587" y="-13"/>
      <point x="647" y="44" type="curve" smooth="yes"/>
      <point x="694" y="89"/>
      <point x="724" y="158"/>
      <point x="724" y="256" type="curve" smooth="yes"/>
      <point x="724" y="605" type="line" smooth="yes"/>
      <point x="724" y="639"/>
      <point x="762" y="650"/>
      <point x="814" y="650" type="curve" smooth="yes"/>
      <point x="826" y="650" type="line"/>
      <point x="826" y="710" type="line"/>
      <point x="552" y="710" type="line"/>
      <point x="552" y="650" type="line"/>
      <point x="562" y="650" type="line" smooth="yes"/>
      <point x="602" y="650"/>
      <point x="654" y="643"/>
      <point x="654" y="631" type="curve" smooth="yes"/>
      <point x="654" y="256" type="line" smooth="yes"/>
      <point x="654" y="98"/>
      <point x="569" y="45"/>
      <point x="452" y="45" type="curve" smooth="yes"/>
      <point x="335" y="45"/>
      <point x="249" y="98"/>
      <point x="249" y="256" type="curve" smooth="yes"/>
      <point x="249" y="640" type="line" smooth="yes"/>
      <point x="249" y="647"/>
      <point x="301" y="650"/>
      <point x="341" y="650" type="curve" smooth="yes"/>
      <point x="351" y="650" type="line"/>
      <point x="351" y="710" type="line"/>
      <point x="55" y="710" type="line"/>
      <point x="55" y="650" type="line"/>
      <point x="67" y="650" type="line" smooth="yes"/>
      <point x="119" y="650"/>
      <point x="157" y="643"/>
      <point x="157" y="614" type="curve" smooth="yes"/>
      <point x="157" y="256" type="line" smooth="yes"/>
      <point x="157" y="56"/>
      <point x="279" y="-25"/>
      <point x="444" y="-25" type="curve" smooth="yes"/>
      <point x="489" y="-25"/>
      <point x="530" y="-19"/>
      <point x="567" y="-5" type="curve"/>
      <point x="569" y="32" type="line"/>
      <point x="401" y="-74"/>
      <point x="360" y="-99"/>
      <point x="360" y="-162" type="curve" smooth="yes"/>
      <point x="360" y="-224"/>
      <point x="418" y="-252"/>
    </contour>
  </outline>
</glyph>
<glyph name="Schwa" format="2">
  <advance width="811"/>
  <unicode hex="018F"/>
  <outline>
    <contour>
      <point x="391" y="748" type="curve" smooth="yes"/>
      <point x="236" y="748"/>
      <point x="128" y="683"/>
      <point x="65" y="584" type="curve"/>
      <point x="124" y="547" type="line"/>
      <point x="181" y="635"/>
      <point x="255" y="686"/>
      <point x="391" y="686" type="curve" smooth="yes"/>
      <point x="543" y="686"/>
      <point x="647" y="622"/>
      <point x="647" y="368" type="curve" smooth="yes"/>
      <point x="647" y="135"/>
      <point x="552" y="36"/>
      <point x="391" y="36" type="curve" smooth="yes"/>
      <point x="231" y="36"/>
      <point x="178" y="113"/>
      <point x="167" y="339" type="curve"/>
      <point x="151" y="326" type="line"/>
      <point x="681" y="326" type="line"/>
      <point x="681" y="387" type="line"/>
      <point x="67" y="387" type="line"/>
      <point x="71" y="117"/>
      <point x="164" y="-25"/>
      <point x="392" y="-25" type="curve" smooth="yes"/>
      <point x="606" y="-25"/>
      <point x="746" y="130"/>
      <point x="746" y="368" type="curve" smooth="yes"/>
      <point x="746" y="622"/>
      <point x="605" y="748"/>
    </contour>
  </outline>
</glyph>
<glyph name="Oogonek" format="2">
  <advance width="875"/>
  <unicode hex="01EA"/>
  <outline>
    <contour>
      <point x="437" y="36" type="curve" smooth="yes"/>
      <point x="260" y="36"/>
      <point x="164" y="136"/>
      <point x="164" y="355" type="curve" smooth="yes"/>
      <point x="164" y="574"/>
      <point x="260" y="674"/>
      <point x="437" y="674" type="curve" smooth="yes"/>
      <point x="615" y="674"/>
      <point x="710" y="574"/>
      <point x="710" y="355" type="curve" smooth="yes"/>
      <point x="710" y="136"/>
      <point x="615" y="36"/>
    </contour>
    <contour>
      <point x="510" y="-252" type="curve" smooth="yes"/>
      <point x="585" y="-252"/>
      <point x="631" y="-223"/>
      <point x="668" y="-182" type="curve"/>
      <point x="629" y="-148" type="line"/>
      <point x="610" y="-169"/>
      <point x="578" y="-197"/>
      <point x="532" y="-197" type="curve" smooth="yes"/>
      <point x="497" y="-197"/>
      <point x="477" y="-182"/>
      <point x="477" y="-151" type="curve" smooth="yes"/>
      <point x="477" y="-63"/>
      <point x="626" y="-4"/>
      <point x="702" y="67" type="curve" smooth="yes"/>
      <point x="770" y="132"/>
      <point x="810" y="228"/>
      <point x="810" y="355" type="curve" smooth="yes"/>
      <point x="810" y="603"/>
      <point x="660" y="735"/>
      <point x="437" y="735" type="curve" smooth="yes"/>
      <point x="215" y="735"/>
      <point x="65" y="603"/>
      <point x="65" y="355" type="curve" smooth="yes"/>
      <point x="65" y="108"/>
      <point x="215" y="-25"/>
      <point x="437" y="-25" type="curve" smooth="yes"/>
      <point x="486" y="-25"/>
      <point x="530" y="-19"/>
      <point x="571" y="-6" type="curve"/>
      <point x="588" y="33" type="line"/>
      <point x="416" y="-74"/>
      <point x="376" y="-98"/>
      <point x="376" y="-162" type="curve" smooth="yes"/>
      <point x="376" y="-224"/>
      <point x="434" y="-252"/>
    </contour>
  </outline>
</glyph>
<glyph name="dotaccent" format="2">
  <advance width="530"/>
  <unicode hex="02D9"/>
  <anchor x="265" y="526" name="_top"/>
  <outline>
    <contour>
      <point x="265" y="677" type="curve" smooth="yes"/>
      <point x="306" y="677"/>
      <point x="336" y="696"/>
      <point x="336" y="742" type="curve" smooth="yes"/>
      <point x="336" y="786"/>
      <point x="306" y="807"/>
      <point x="265" y="807" type="curve" smooth="yes"/>
      <point x="223" y="807"/>
      <point x="194" y="786"/>
      <point x="194" y="742" type="curve" smooth="yes"/>
      <point x="194" y="696"/>
      <point x="223" y="677"/>
    </contour>
  </outline>
</glyph>
<glyph name="tilde" format="2">
  <advance width="530"/>
  <unicode hex="02DC"/>
  <anchor x="262" y="516" name="_top"/>
  <outline>
    <contour>
      <point x="342" y="657" type="curve" smooth="yes"/>
      <point x="411" y="657"/>
      <point x="444" y="693"/>
      <point x="466" y="837" type="curve"/>
      <point x="410" y="847" type="line"/>
      <point x="393" y="763"/>
      <point x="391" y="725"/>
      <point x="354" y="725" type="curve" smooth="yes"/>
      <point x="294" y="725"/>
      <point x="275" y="842"/>
      <point x="187" y="842" type="curve" smooth="yes"/>
      <point x="114" y="842"/>
      <point x="83" y="807"/>
      <point x="64" y="666" type="curve"/>
      <point x="120" y="656" type="line"/>
      <point x="133" y="739"/>
      <point x="137" y="776"/>
      <point x="175" y="776" type="curve" smooth="yes"/>
      <point x="232" y="776"/>
      <point x="250" y="657"/>
    </contour>
  </outline>
</glyph>
<glyph name="hungarumlaut" format="2">
  <advance width="530"/>
  <unicode hex="02DD"/>
  <anchor x="222" y="525" name="_top"/>
  <outline>
    <contour>
      <point x="111" y="808" type="curve" smooth="yes"/>
      <point x="77" y="686" type="line"/>
      <point x="77" y="661" type="line"/>
      <point x="108" y="661" type="line"/>
      <point x="198" y="753" type="line" smooth="yes"/>
      <point x="223" y="778"/>
      <point x="236" y="797"/>
      <point x="236" y="822" type="curve" smooth="yes"/>
      <point x="236" y="848"/>
      <point x="215" y="870"/>
      <point x="181" y="870" type="curve" smooth="yes"/>
      <point x="141" y="870"/>
      <point x="121" y="845"/>
    </contour>
    <contour>
      <point x="321" y="808" type="curve" smooth="yes"/>
      <point x="286" y="686" type="line"/>
      <point x="286" y="661" type="line"/>
      <point x="318" y="661" type="line"/>
      <point x="408" y="753" type="line" smooth="yes"/>
      <point x="432" y="778"/>
      <point x="446" y="797"/>
      <point x="446" y="822" type="curve" smooth="yes"/>
      <point x="446" y="848"/>
      <point x="425" y="870"/>
      <point x="391" y="870" type="curve" smooth="yes"/>
      <point x="351" y="870"/>
      <point x="332" y="845"/>
    </contour>
  </outline>
</glyph>
<glyph name="Omega" format="2">
  <advance width="937"/>
  <unicode hex="03A9"/>
  <outline>
    <contour>
      <point x="469" y="735" type="curve" smooth="yes"/>
      <point x="674" y="735"/>
      <point x="815" y="647"/>
      <point x="815" y="468" type="curve" smooth="yes"/>
      <point x="815" y="339"/>
      <point x="728" y="239"/>
      <point x="560" y="55" type="curve"/>
      <point x="550" y="68" type="line"/>
      <point x="671" y="68" type="line" smooth="yes"/>
      <point x="762" y="68"/>
      <point x="797" y="82"/>
      <point x="803" y="118" type="curve" smooth="yes"/>
      <point x="819" y="216" type="line"/>
      <point x="882" y="216" type="line"/>
      <point x="882" y="0" type="line"/>
      <point x="528" y="0" type="line"/>
      <point x="528" y="96" type="line"/>
      <point x="628" y="225"/>
      <point x="716" y="303"/>
      <point x="716" y="456" type="curve" smooth="yes"/>
      <point x="716" y="628"/>
      <point x="624" y="674"/>
      <point x="469" y="674" type="curve" smooth="yes"/>
      <point x="313" y="674"/>
      <point x="221" y="628"/>
      <point x="221" y="456" type="curve" smooth="yes"/>
      <point x="221" y="303"/>
      <point x="309" y="225"/>
      <point x="409" y="96" type="curve"/>
      <point x="409" y="0" type="line"/>
      <point x="55" y="0" type="line"/>
      <point x="55" y="216" type="line"/>
      <point x="118" y="216" type="line"/>
      <point x="134" y="118" type="line" smooth="yes"/>
      <point x="140" y="82"/>
      <point x="175" y="68"/>
      <point x="266" y="68" type="curve" smooth="yes"/>
      <point x="387" y="68" type="line"/>
      <point x="377" y="55" type="line"/>
      <point x="209" y="239"/>
      <point x="122" y="339"/>
      <point x="122" y="468" type="curve" smooth="yes"/>
      <point x="122" y="647"/>
      <point x="263" y="735"/>
    </contour>
  </outline>
</glyph>
<glyph name="pi" format="2">
  <advance width="818"/>
  <unicode hex="03C0"/>
  <outline>
    <contour>
      <point x="336" y="0" type="line"/>
      <point x="336" y="478" type="line"/>
      <point x="275" y="478" type="line"/>
      <point x="265" y="210"/>
      <point x="242" y="186"/>
      <point x="242" y="0" type="curve"/>
    </contour>
    <contour>
      <point x="771" y="436" type="line"/>
      <point x="771" y="512" type="line"/>
      <point x="265" y="512" type="line" smooth="yes"/>
      <point x="127" y="512"/>
      <point x="66" y="446"/>
      <point x="41" y="321" type="curve"/>
      <point x="105" y="305" type="line"/>
      <point x="126" y="395"/>
      <point x="159" y="436"/>
      <point x="246" y="436" type="curve" smooth="yes"/>
    </contour>
    <contour>
      <point x="602" y="102" type="curve" smooth="yes"/>
      <point x="602" y="478" type="line"/>
      <point x="536" y="478" type="line"/>
      <point x="525" y="236"/>
      <point x="507" y="169"/>
      <point x="507" y="104" type="curve" smooth="yes"/>
      <point x="507" y="24"/>
      <point x="558" y="-10"/>
      <point x="639" y="-10" type="curve" smooth="yes"/>
      <point x="720" y="-10"/>
      <point x="755" y="29"/>
      <point x="782" y="103" type="curve"/>
      <point x="730" y="123" type="line"/>
      <point x="711" y="77"/>
      <point x="697" y="52"/>
      <point x="649" y="52" type="curve" smooth="yes"/>
      <point x="620" y="52"/>
      <point x="602" y="64"/>
    </contour>
  </outline>
</glyph>
<glyph name="thai:baht" format="2">
  <advance width="594"/>
  <unicode hex="0E3F"/>
  <outline>
    <contour>
      <point x="337" y="394" type="curve"/>
      <point x="161" y="394" type="line"/>
      <point x="161" y="650" type="line"/>
      <point x="314" y="650" type="line" smooth="yes"/>
      <point x="452" y="650"/>
      <point x="476" y="606"/>
      <point x="476" y="525" type="curve" smooth="yes"/>
      <point x="476" y="458"/>
      <point x="464" y="394"/>
    </contour>
    <contour>
      <point x="331" y="351" type="line"/>
      <point x="468" y="351"/>
      <point x="492" y="286"/>
      <point x="492" y="213" type="curve" smooth="yes"/>
      <point x="492" y="116"/>
      <point x="459" y="59"/>
      <point x="309" y="59" type="curve" smooth="yes"/>
      <point x="161" y="59" type="line"/>
      <point x="161" y="351" type="line"/>
    </contour>
    <contour>
      <point x="267" y="790" type="line"/>
      <point x="267" y="677" type="line"/>
      <point x="288" y="661" type="line"/>
      <point x="288" y="45" type="line"/>
      <point x="267" y="35" type="line"/>
      <point x="267" y="-110" type="line"/>
      <point x="348" y="-110" type="line"/>
      <point x="348" y="37" type="line"/>
      <point x="331" y="49" type="line"/>
      <point x="331" y="663" type="line"/>
      <point x="348" y="674" type="line"/>
      <point x="348" y="790" type="line"/>
    </contour>
    <contour>
      <point x="375" y="375" type="line"/>
      <point x="501" y="384"/>
      <point x="561" y="445"/>
      <point x="561" y="530" type="curve" smooth="yes"/>
      <point x="561" y="635"/>
      <point x="477" y="700"/>
      <point x="310" y="700" type="curve" smooth="yes"/>
      <point x="10" y="700" type="line"/>
      <point x="10" y="641" type="line"/>
      <point x="22" y="641" type="line" smooth="yes"/>
      <point x="58" y="641"/>
      <point x="80" y="634"/>
      <point x="80" y="605" type="curve" smooth="yes"/>
      <point x="80" y="105" type="line" smooth="yes"/>
      <point x="80" y="76"/>
      <point x="58" y="69"/>
      <point x="22" y="69" type="curve" smooth="yes"/>
      <point x="10" y="69" type="line"/>
      <point x="10" y="10" type="line"/>
      <point x="306" y="10" type="line" smooth="yes"/>
      <point x="485" y="10"/>
      <point x="579" y="86"/>
      <point x="579" y="211" type="curve" smooth="yes"/>
      <point x="579" y="303"/>
      <point x="511" y="362"/>
      <point x="376" y="372" type="curve"/>
      <point x="399" y="362" type="line"/>
      <point x="399" y="385" type="line"/>
    </contour>
  </outline>
</glyph>
<glyph name="peseta" format="2">
  <advance width="594"/>
  <unicode hex="20A7"/>
  <outline>
    <contour>
      <point x="7" y="0" type="line"/>
      <point x="195" y="0" type="line"/>
      <point x="195" y="59" type="line"/>
      <point x="183" y="59" type="line" smooth="yes"/>
      <point x="164" y="59"/>
      <point x="132" y="62"/>
      <point x="132" y="69" type="curve" smooth="yes"/>
      <point x="132" y="251" type="line"/>
      <point x="166" y="251" type="line" smooth="yes"/>
      <point x="298" y="251"/>
      <point x="353" y="350"/>
      <point x="353" y="486" type="curve" smooth="yes"/>
      <point x="353" y="622"/>
      <point x="303" y="710"/>
      <point x="171" y="710" type="curve" smooth="yes"/>
      <point x="7" y="710" type="line"/>
      <point x="7" y="651" type="line"/>
      <point x="13" y="651" type="line" smooth="yes"/>
      <point x="36" y="651"/>
      <point x="52" y="644"/>
      <point x="52" y="615" type="curve" smooth="yes"/>
      <point x="52" y="95" type="line" smooth="yes"/>
      <point x="52" y="66"/>
      <point x="36" y="59"/>
      <point x="13" y="59" type="curve" smooth="yes"/>
      <point x="7" y="59" type="line"/>
    </contour>
    <contour>
      <point x="172" y="651" type="line" smooth="yes"/>
      <point x="255" y="651"/>
      <point x="273" y="600"/>
      <point x="273" y="485" type="curve" smooth="yes"/>
      <point x="273" y="370"/>
      <point x="254" y="310"/>
      <point x="167" y="310" type="curve" smooth="yes"/>
      <point x="132" y="310" type="line"/>
      <point x="132" y="651" type="line"/>
    </contour>
    <contour>
      <point x="468" y="555" type="line"/>
      <point x="417" y="539" type="line"/>
      <point x="417" y="90" type="line" smooth="yes"/>
      <point x="417" y="9"/>
      <point x="462" y="-12"/>
      <point x="524" y="-12" type="curve" smooth="yes"/>
      <point x="545" y="-12"/>
      <point x="570" y="-10"/>
      <point x="584" y="-7" type="curve"/>
      <point x="584" y="55" type="line"/>
      <point x="578" y="54"/>
      <point x="562" y="52"/>
      <point x="546" y="52" type="curve" smooth="yes"/>
      <point x="514" y="52"/>
      <point x="495" y="64"/>
      <point x="495" y="100" type="curve" smooth="yes"/>
      <point x="495" y="710" type="line"/>
      <point x="432" y="710" type="line"/>
      <point x="432" y="615" type="line"/>
      <point x="432" y="554"/>
      <point x="411" y="543"/>
      <point x="373" y="543" type="curve" smooth="yes"/>
      <point x="335" y="543" type="line"/>
      <point x="335" y="496" type="line"/>
      <point x="590" y="496" type="line"/>
      <point x="590" y="555" type="line"/>
    </contour>
  </outline>
</glyph>
<glyph name="won" format="2">
  <advance width="594"/>
  <unicode hex="20A9"/>
  <outline>
    <contour>
      <point x="20" y="710" type="line"/>
      <point x="20" y="657" type="line"/>
      <point x="29" y="657" type="line" smooth="yes"/>
      <point x="53" y="657"/>
      <point x="72" y="654"/>
      <point x="75" y="620" type="curve" smooth="yes"/>
      <point x="141" y="0" type="line"/>
      <point x="205" y="0" type="line"/>
      <point x="310" y="703" type="line"/>
      <point x="295" y="707" type="line"/>
      <point x="404" y="0" type="line"/>
      <point x="468" y="0" type="line"/>
      <point x="519" y="614" type="line" smooth="yes"/>
      <point x="522" y="648"/>
      <point x="543" y="657"/>
      <point x="566" y="657" type="curve" smooth="yes"/>
      <point x="574" y="657" type="line"/>
      <point x="574" y="710" type="line"/>
      <point x="436" y="710" type="line"/>
      <point x="436" y="657" type="line"/>
      <point x="441" y="657" type="line" smooth="yes"/>
      <point x="466" y="657"/>
      <point x="474" y="650"/>
      <point x="474" y="639" type="curve"/>
      <point x="424" y="8" type="line"/>
      <point x="448" y="10" type="line"/>
      <point x="342" y="710" type="line"/>
      <point x="266" y="710" type="line"/>
      <point x="163" y="12" type="line"/>
      <point x="189" y="15" type="line"/>
      <point x="127" y="647" type="line"/>
      <point x="127" y="654"/>
      <point x="138" y="657"/>
      <point x="160" y="657" type="curve" smooth="yes"/>
      <point x="165" y="657" type="line"/>
      <point x="165" y="710" type="line"/>
    </contour>
    <contour>
      <point x="-4" y="510" type="line"/>
      <point x="-4" y="443" type="line"/>
      <point x="133" y="443" type="line"/>
      <point x="128" y="454" type="line"/>
      <point x="249" y="490" type="line"/>
      <point x="246" y="510" type="line"/>
    </contour>
    <contour>
      <point x="353" y="490" type="line"/>
      <point x="488" y="454" type="line"/>
      <point x="479" y="443" type="line"/>
      <point x="598" y="443" type="line"/>
      <point x="598" y="510" type="line"/>
      <point x="356" y="510" type="line"/>
    </contour>
    <contour>
      <point x="219" y="242" type="line"/>
      <point x="388" y="242" type="line"/>
      <point x="381" y="262" type="line"/>
      <point x="302" y="294" type="line"/>
      <point x="230" y="262" type="line"/>
    </contour>
    <contour>
      <point x="122" y="298" type="line"/>
      <point x="-4" y="298" type="line"/>
      <point x="-4" y="230" type="line"/>
      <point x="133" y="230" type="line"/>
    </contour>
    <contour>
      <point x="479" y="230" type="line"/>
      <point x="598" y="230" type="line"/>
      <point x="598" y="298" type="line"/>
      <point x="484" y="298" type="line"/>
    </contour>
  </outline>
</glyph>
<glyph name="kip" format="2">
  <advance width="594"/>
  <unicode hex="20AD"/>
  <outline>
    <contour>
      <point x="29" y="403" type="line"/>
      <point x="29" y="345" type="line"/>
      <point x="548" y="345" type="line"/>
      <point x="548" y="403" type="line"/>
    </contour>
    <contour>
      <point x="34" y="0" type="line"/>
      <point x="247" y="0" type="line"/>
      <point x="247" y="59" type="line"/>
      <point x="238" y="59" type="line" smooth="yes"/>
      <point x="206" y="59"/>
      <point x="179" y="62"/>
      <point x="179" y="69" type="curve" smooth="yes"/>
      <point x="179" y="641" type="line" smooth="yes"/>
      <point x="179" y="648"/>
      <point x="206" y="651"/>
      <point x="238" y="651" type="curve" smooth="yes"/>
      <point x="247" y="651" type="line"/>
      <point x="247" y="710" type="line"/>
      <point x="34" y="710" type="line"/>
      <point x="34" y="651" type="line"/>
      <point x="45" y="651" type="line" smooth="yes"/>
      <point x="78" y="651"/>
      <point x="103" y="644"/>
      <point x="103" y="615" type="curve" smooth="yes"/>
      <point x="103" y="95" type="line" smooth="yes"/>
      <point x="103" y="66"/>
      <point x="78" y="59"/>
      <point x="45" y="59" type="curve" smooth="yes"/>
      <point x="34" y="59" type="line"/>
    </contour>
    <contour>
      <point x="578" y="59" type="line"/>
      <point x="568" y="59" type="line" smooth="yes"/>
      <point x="539" y="59"/>
      <point x="523" y="64"/>
      <point x="503" y="92" type="curve" smooth="yes"/>
      <point x="285" y="405" type="line"/>
      <point x="286" y="363" type="line"/>
      <point x="490" y="622" type="line" smooth="yes"/>
      <point x="508" y="645"/>
      <point x="528" y="651"/>
      <point x="549" y="651" type="curve" smooth="yes"/>
      <point x="565" y="651" type="line"/>
      <point x="565" y="710" type="line"/>
      <point x="368" y="710" type="line"/>
      <point x="368" y="651" type="line"/>
      <point x="376" y="651" type="line" smooth="yes"/>
      <point x="405" y="651"/>
      <point x="435" y="648"/>
      <point x="435" y="641" type="curve"/>
      <point x="224" y="370" type="line"/>
      <point x="230" y="354" type="line"/>
      <point x="427" y="69" type="line"/>
      <point x="427" y="62"/>
      <point x="398" y="59"/>
      <point x="369" y="59" type="curve" smooth="yes"/>
      <point x="359" y="59" type="line"/>
      <point x="359" y="0" type="line"/>
      <point x="578" y="0" type="line"/>
    </contour>
  </outline>
</glyph>
<glyph name="servicemark" format="2">
  <advance width="1068"/>
  <unicode hex="2120"/>
  <outline>
    <contour>
      <point x="480" y="316" type="line"/>
      <point x="623" y="316" type="line"/>
      <point x="623" y="357" type="line"/>
      <point x="621" y="357" type="line" smooth="yes"/>
      <point x="609" y="357"/>
      <point x="585" y="359"/>
      <point x="585" y="362" type="curve" smooth="yes"/>
      <point x="585" y="705" type="line"/>
      <point x="580" y="706" type="line"/>
      <point x="713" y="315" type="line"/>
      <point x="757" y="315" type="line"/>
      <point x="890" y="706" type="line"/>
      <point x="882" y="701" type="line"/>
      <point x="882" y="362" type="line" smooth="yes"/>
      <point x="882" y="359"/>
      <point x="860" y="357"/>
      <point x="845" y="357" type="curve" smooth="yes"/>
      <point x="841" y="357" type="line"/>
      <point x="841" y="316" type="line"/>
      <point x="1004" y="316" type="line"/>
      <point x="1004" y="357" type="line"/>
      <point x="994" y="357" type="line" smooth="yes"/>
      <point x="968" y="357"/>
      <point x="949" y="361"/>
      <point x="949" y="375" type="curve" smooth="yes"/>
      <point x="949" y="651" type="line" smooth="yes"/>
      <point x="949" y="665"/>
      <point x="968" y="669"/>
      <point x="994" y="669" type="curve" smooth="yes"/>
      <point x="1004" y="669" type="line"/>
      <point x="1004" y="710" type="line"/>
      <point x="843" y="710" type="line"/>
      <point x="731" y="361" type="line"/>
      <point x="758" y="366" type="line"/>
      <point x="649" y="710" type="line"/>
      <point x="480" y="710" type="line"/>
      <point x="480" y="669" type="line"/>
      <point x="490" y="669" type="line" smooth="yes"/>
      <point x="515" y="669"/>
      <point x="535" y="665"/>
      <point x="535" y="651" type="curve" smooth="yes"/>
      <point x="535" y="375" type="line" smooth="yes"/>
      <point x="535" y="361"/>
      <point x="515" y="357"/>
      <point x="490" y="357" type="curve" smooth="yes"/>
      <point x="480" y="357" type="line"/>
    </contour>
    <contour>
      <point x="253" y="354" type="curve" smooth="yes"/>
      <point x="179" y="354"/>
      <point x="143" y="379"/>
      <point x="123" y="460" type="curve"/>
      <point x="67" y="460" type="line"/>
      <point x="67" y="315" type="line"/>
      <point x="115" y="315" type="line"/>
      <point x="120" y="412" type="line"/>
      <point x="122" y="420"/>
      <point x="116" y="421"/>
      <point x="112" y="439" type="curve"/>
      <point x="118" y="346"/>
      <point x="170" y="312"/>
      <point x="255" y="312" type="curve" smooth="yes"/>
      <point x="340" y="312"/>
      <point x="408" y="343"/>
      <point x="408" y="427" type="curve" smooth="yes"/>
      <point x="408" y="506"/>
      <point x="325" y="525"/>
      <point x="257" y="543" type="curve" smooth="yes"/>
      <point x="188" y="561"/>
      <point x="144" y="567"/>
      <point x="144" y="615" type="curve" smooth="yes"/>
      <point x="144" y="657"/>
      <point x="169" y="672"/>
      <point x="226" y="672" type="curve" smooth="yes"/>
      <point x="286" y="672"/>
      <point x="319" y="646"/>
      <point x="339" y="580" type="curve"/>
      <point x="392" y="580" type="line"/>
      <point x="392" y="711" type="line"/>
      <point x="346" y="711" type="line"/>
      <point x="340" y="627" type="line"/>
      <point x="337" y="616"/>
      <point x="342" y="616"/>
      <point x="347" y="601" type="curve"/>
      <point x="340" y="680"/>
      <point x="296" y="714"/>
      <point x="223" y="714" type="curve" smooth="yes"/>
      <point x="132" y="714"/>
      <point x="82" y="673"/>
      <point x="82" y="608" type="curve" smooth="yes"/>
      <point x="82" y="528"/>
      <point x="149" y="508"/>
      <point x="223" y="489" type="curve" smooth="yes"/>
      <point x="283" y="473"/>
      <point x="342" y="468"/>
      <point x="342" y="414" type="curve" smooth="yes"/>
      <point x="342" y="371"/>
      <point x="315" y="354"/>
    </contour>
  </outline>
</glyph>
<glyph name="trademark" format="2">
  <advance width="1105"/>
  <unicode hex="2122"/>
  <outline>
    <contour>
      <point x="64" y="710" type="line"/>
      <point x="64" y="568" type="line"/>
      <point x="112" y="568" type="line"/>
      <point x="118" y="639" type="line" smooth="yes"/>
      <point x="120" y="657"/>
      <point x="139" y="666"/>
      <point x="191" y="666" type="curve" smooth="yes"/>
      <point x="228" y="666" type="line"/>
      <point x="228" y="375" type="line" smooth="yes"/>
      <point x="228" y="361"/>
      <point x="206" y="357"/>
      <point x="179" y="357" type="curve" smooth="yes"/>
      <point x="165" y="357" type="line"/>
      <point x="165" y="316" type="line"/>
      <point x="359" y="316" type="line"/>
      <point x="359" y="357" type="line"/>
      <point x="345" y="357" type="line" smooth="yes"/>
      <point x="318" y="357"/>
      <point x="297" y="361"/>
      <point x="297" y="375" type="curve" smooth="yes"/>
      <point x="297" y="666" type="line"/>
      <point x="333" y="666" type="line" smooth="yes"/>
      <point x="387" y="666"/>
      <point x="405" y="657"/>
      <point x="407" y="639" type="curve" smooth="yes"/>
      <point x="414" y="568" type="line"/>
      <point x="462" y="568" type="line"/>
      <point x="462" y="710" type="line"/>
    </contour>
    <contour>
      <point x="517" y="316" type="line"/>
      <point x="661" y="316" type="line"/>
      <point x="661" y="357" type="line"/>
      <point x="658" y="357" type="line" smooth="yes"/>
      <point x="646" y="357"/>
      <point x="622" y="359"/>
      <point x="622" y="362" type="curve" smooth="yes"/>
      <point x="622" y="705" type="line"/>
      <point x="617" y="706" type="line"/>
      <point x="750" y="315" type="line"/>
      <point x="794" y="315" type="line"/>
      <point x="927" y="706" type="line"/>
      <point x="920" y="701" type="line"/>
      <point x="920" y="362" type="line" smooth="yes"/>
      <point x="920" y="359"/>
      <point x="897" y="357"/>
      <point x="882" y="357" type="curve" smooth="yes"/>
      <point x="878" y="357" type="line"/>
      <point x="878" y="316" type="line"/>
      <point x="1041" y="316" type="line"/>
      <point x="1041" y="357" type="line"/>
      <point x="1031" y="357" type="line" smooth="yes"/>
      <point x="1005" y="357"/>
      <point x="986" y="361"/>
      <point x="986" y="375" type="curve" smooth="yes"/>
      <point x="986" y="651" type="line" smooth="yes"/>
      <point x="986" y="665"/>
      <point x="1005" y="669"/>
      <point x="1031" y="669" type="curve" smooth="yes"/>
      <point x="1041" y="669" type="line"/>
      <point x="1041" y="710" type="line"/>
      <point x="880" y="710" type="line"/>
      <point x="768" y="361" type="line"/>
      <point x="795" y="366" type="line"/>
      <point x="686" y="710" type="line"/>
      <point x="517" y="710" type="line"/>
      <point x="517" y="669" type="line"/>
      <point x="527" y="669" type="line" smooth="yes"/>
      <point x="552" y="669"/>
      <point x="572" y="665"/>
      <point x="572" y="651" type="curve" smooth="yes"/>
      <point x="572" y="375" type="line" smooth="yes"/>
      <point x="572" y="361"/>
      <point x="552" y="357"/>
      <point x="527" y="357" type="curve" smooth="yes"/>
      <point x="517" y="357" type="line"/>
    </contour>
  </outline>
</glyph>
<glyph name="emptyset" format="2">
  <advance width="740"/>
  <unicode hex="2205"/>
  <outline>
    <contour>
      <point x="82" y="-45" type="line"/>
      <point x="697" y="550" type="line"/>
      <point x="658" y="585" type="line"/>
      <point x="43" y="-10" type="line"/>
    </contour>
    <contour>
      <point x="370" y="-10" type="curve" smooth="yes"/>
      <point x="534" y="-10"/>
      <point x="670" y="100"/>
      <point x="670" y="270" type="curve" smooth="yes"/>
      <point x="670" y="440"/>
      <point x="534" y="550"/>
      <point x="370" y="550" type="curve" smooth="yes"/>
      <point x="206" y="550"/>
      <point x="70" y="440"/>
      <point x="70" y="270" type="curve" smooth="yes"/>
      <point x="70" y="100"/>
      <point x="206" y="-10"/>
    </contour>
    <contour>
      <point x="370" y="44" type="curve" smooth="yes"/>
      <point x="236" y="44"/>
      <point x="132" y="127"/>
      <point x="132" y="270" type="curve" smooth="yes"/>
      <point x="132" y="412"/>
      <point x="239" y="496"/>
      <point x="370" y="496" type="curve" smooth="yes"/>
      <point x="505" y="496"/>
      <point x="608" y="414"/>
      <point x="608" y="270" type="curve" smooth="yes"/>
      <point x="608" y="129"/>
      <point x="502" y="44"/>
    </contour>
  </outline>
</glyph>
<glyph name="product" format="2">
  <advance width="779"/>
  <unicode hex="220F"/>
  <outline>
    <contour>
      <point x="49" y="710" type="line"/>
      <point x="49" y="651" type="line"/>
      <point x="61" y="651" type="line" smooth="yes"/>
      <point x="112" y="651"/>
      <point x="151" y="644"/>
      <point x="151" y="615" type="curve" smooth="yes"/>
      <point x="151" y="-128" type="line" smooth="yes"/>
      <point x="151" y="-157"/>
      <point x="112" y="-164"/>
      <point x="61" y="-164" type="curve" smooth="yes"/>
      <point x="49" y="-164" type="line"/>
      <point x="49" y="-223" type="line"/>
      <point x="333" y="-223" type="line"/>
      <point x="333" y="-164" type="line"/>
      <point x="324" y="-164" type="line" smooth="yes"/>
      <point x="285" y="-164"/>
      <point x="237" y="-161"/>
      <point x="237" y="-154" type="curve" smooth="yes"/>
      <point x="237" y="641" type="line" smooth="yes"/>
      <point x="237" y="648"/>
      <point x="289" y="651"/>
      <point x="330" y="651" type="curve" smooth="yes"/>
      <point x="450" y="651" type="line" smooth="yes"/>
      <point x="490" y="651"/>
      <point x="542" y="648"/>
      <point x="542" y="641" type="curve" smooth="yes"/>
      <point x="542" y="-154" type="line" smooth="yes"/>
      <point x="542" y="-161"/>
      <point x="495" y="-164"/>
      <point x="456" y="-164" type="curve" smooth="yes"/>
      <point x="446" y="-164" type="line"/>
      <point x="446" y="-223" type="line"/>
      <point x="730" y="-223" type="line"/>
      <point x="730" y="-164" type="line"/>
      <point x="719" y="-164" type="line" smooth="yes"/>
      <point x="667" y="-164"/>
      <point x="628" y="-157"/>
      <point x="628" y="-128" type="curve"/>
      <point x="628" y="615" type="line" smooth="yes"/>
      <point x="628" y="644"/>
      <point x="667" y="651"/>
      <point x="719" y="651" type="curve" smooth="yes"/>
      <point x="730" y="651" type="line"/>
      <point x="730" y="710" type="line"/>
    </contour>
  </outline>
</glyph>
<glyph name="minus" format="2">
  <advance width="594"/>
  <unicode hex="2212"/>
  <outline>
    <contour>
      <point x="537" y="374" type="line"/>
      <point x="57" y="374" type="line"/>
      <point x="57" y="308" type="line"/>
      <point x="537" y="308" type="line"/>
    </contour>
  </outline>
</glyph>
<glyph name="hook" format="2">
  <advance width="530"/>
  <unicode hex="2440"/>
  <anchor x="263" y="517" name="_top"/>
  <outline>
    <contour>
      <point x="91" y="804" type="line"/>
      <point x="96" y="884"/>
      <point x="169" y="925"/>
      <point x="266" y="925" type="curve" smooth="yes"/>
      <point x="370" y="925"/>
      <point x="433" y="889"/>
      <point x="433" y="813" type="curve" smooth="yes"/>
      <point x="433" y="729"/>
      <point x="355" y="700"/>
      <point x="249" y="699" type="curve"/>
      <point x="304" y="741" type="line"/>
      <point x="304" y="647" type="line"/>
      <point x="217" y="647" type="line"/>
      <point x="217" y="743" type="line"/>
      <point x="301" y="744"/>
      <point x="340" y="756"/>
      <point x="340" y="812" type="curve" smooth="yes"/>
      <point x="340" y="852"/>
      <point x="320" y="867"/>
      <point x="266" y="867" type="curve" smooth="yes"/>
      <point x="211" y="867"/>
      <point x="189" y="853"/>
      <point x="184" y="804" type="curve"/>
    </contour>
  </outline>
</glyph>
<glyph name="lozenge" format="2">
  <advance width="749"/>
  <unicode hex="25CA"/>
  <outline>
    <contour>
      <point x="353" y="23" type="line"/>
      <point x="396" y="23" type="line"/>
      <point x="109" y="371" type="line"/>
      <point x="106" y="336" type="line"/>
      <point x="396" y="687" type="line"/>
      <point x="353" y="687" type="line"/>
      <point x="643" y="336" type="line"/>
      <point x="639" y="371" type="line"/>
    </contour>
    <contour>
      <point x="333" y="0" type="line"/>
      <point x="415" y="0" type="line"/>
      <point x="685" y="324" type="line"/>
      <point x="685" y="386" type="line"/>
      <point x="415" y="710" type="line"/>
      <point x="333" y="710" type="line"/>
      <point x="64" y="386" type="line"/>
      <point x="64" y="324" type="line"/>
    </contour>
  </outline>
</glyph>
<glyph name="AE.alt" format="2">
  <advance width="1169"/>
  <outline>
    <contour>
      <point x="265" y="293" type="line"/>
      <point x="244" y="235" type="line"/>
      <point x="635" y="235" type="line"/>
      <point x="615" y="293" type="line"/>
    </contour>
    <contour>
      <point x="482" y="0" type="line"/>
      <point x="1092" y="0" type="line"/>
      <point x="1092" y="209" type="line"/>
      <point x="1025" y="209" type="line"/>
      <point x="1009" y="104" type="line" smooth="yes"/>
      <point x="1004" y="68"/>
      <point x="967" y="59"/>
      <point x="876" y="59" type="curve"/>
      <point x="675" y="59" type="line"/>
      <point x="675" y="651" type="line"/>
      <point x="859" y="651" type="line" smooth="yes"/>
      <point x="950" y="651"/>
      <point x="986" y="642"/>
      <point x="992" y="606" type="curve" smooth="yes"/>
      <point x="1006" y="526" type="line"/>
      <point x="1071" y="526" type="line"/>
      <point x="1071" y="710" type="line"/>
      <point x="344" y="710" type="line"/>
      <point x="344" y="650" type="line"/>
      <point x="356" y="650" type="line" smooth="yes"/>
      <point x="408" y="650"/>
      <point x="446" y="643"/>
      <point x="446" y="614" type="curve"/>
      <point x="122" y="124" type="line"/>
      <point x="91" y="77"/>
      <point x="61" y="60"/>
      <point x="18" y="60" type="curve" smooth="yes"/>
      <point x="11" y="60" type="line"/>
      <point x="11" y="0" type="line"/>
      <point x="285" y="0" type="line"/>
      <point x="285" y="60" type="line"/>
      <point x="275" y="60" type="line" smooth="yes"/>
      <point x="215" y="60"/>
      <point x="179" y="70"/>
      <point x="179" y="83" type="curve"/>
      <point x="558" y="657" type="line"/>
      <point x="584" y="657" type="line"/>
      <point x="584" y="85" type="line" smooth="yes"/>
      <point x="584" y="70"/>
      <point x="547" y="60"/>
      <point x="489" y="60" type="curve" smooth="yes"/>
      <point x="482" y="60" type="line"/>
    </contour>
    <contour>
      <point x="661" y="391" type="line"/>
      <point x="661" y="334" type="line"/>
      <point x="831" y="334" type="line" smooth="yes"/>
      <point x="861" y="334"/>
      <point x="872" y="309"/>
      <point x="872" y="275" type="curve" smooth="yes"/>
      <point x="872" y="255" type="line"/>
      <point x="939" y="255" type="line"/>
      <point x="939" y="471" type="line"/>
      <point x="872" y="471" type="line"/>
      <point x="872" y="451" type="line" smooth="yes"/>
      <point x="872" y="416"/>
      <point x="861" y="391"/>
      <point x="831" y="391" type="curve" smooth="yes"/>
    </contour>
  </outline>
</glyph>
<glyph name="E.alt" format="2">
  <advance width="755"/>
  <outline>
    <contour>
      <point x="678" y="209" type="line"/>
      <point x="611" y="209" type="line"/>
      <point x="595" y="104" type="line" smooth="yes"/>
      <point x="589" y="68"/>
      <point x="553" y="59"/>
      <point x="462" y="59" type="curve" smooth="yes"/>
      <point x="257" y="59" type="line"/>
      <point x="257" y="651" type="line"/>
      <point x="445" y="651" type="line" smooth="yes"/>
      <point x="536" y="651"/>
      <point x="572" y="642"/>
      <point x="578" y="606" type="curve" smooth="yes"/>
      <point x="591" y="526" type="line"/>
      <point x="656" y="526" type="line"/>
      <point x="656" y="710" type="line"/>
      <point x="62" y="710" type="line"/>
      <point x="62" y="650" type="line"/>
      <point x="74" y="650" type="line" smooth="yes"/>
      <point x="126" y="650"/>
      <point x="164" y="643"/>
      <point x="164" y="614" type="curve" smooth="yes"/>
      <point x="164" y="96" type="line" smooth="yes"/>
      <point x="164" y="67"/>
      <point x="126" y="60"/>
      <point x="74" y="60" type="curve" smooth="yes"/>
      <point x="62" y="60" type="line"/>
      <point x="62" y="0" type="line"/>
      <point x="678" y="0" type="line"/>
    </contour>
    <contour>
      <point x="243" y="391" type="line"/>
      <point x="243" y="334" type="line"/>
      <point x="417" y="334" type="line" smooth="yes"/>
      <point x="447" y="334"/>
      <point x="458" y="309"/>
      <point x="458" y="275" type="curve" smooth="yes"/>
      <point x="458" y="255" type="line"/>
      <point x="525" y="255" type="line"/>
      <point x="525" y="471" type="line"/>
      <point x="458" y="471" type="line"/>
      <point x="458" y="451" type="line" smooth="yes"/>
      <point x="458" y="416"/>
      <point x="447" y="391"/>
      <point x="417" y="391" type="curve" smooth="yes"/>
    </contour>
  </outline>
</glyph>
<glyph name="Euro.proportional" format="2">
  <advance width="772"/>
  <outline>
    <contour>
      <point x="47" y="286" type="line"/>
      <point x="47" y="227" type="line"/>
      <point x="545" y="227" type="line"/>
      <point x="545" y="286" type="line"/>
    </contour>
    <contour>
      <point x="47" y="465" type="line"/>
      <point x="47" y="406" type="line"/>
      <point x="577" y="406" type="line"/>
      <point x="577" y="465" type="line"/>
    </contour>
    <contour>
      <point x="256" y="355" type="curve" smooth="yes"/>
      <point x="256" y="585"/>
      <point x="315" y="674"/>
      <point x="487" y="674" type="curve" smooth="yes"/>
      <point x="556" y="674"/>
      <point x="614" y="664"/>
      <point x="657" y="651" type="curve"/>
      <point x="655" y="654"/>
      <point x="637" y="675"/>
      <point x="609" y="674" type="curve"/>
      <point x="609" y="563" type="line"/>
      <point x="700" y="563" type="line"/>
      <point x="700" y="704" type="line"/>
      <point x="672" y="715"/>
      <point x="596" y="735"/>
      <point x="488" y="735" type="curve" smooth="yes"/>
      <point x="262" y="735"/>
      <point x="164" y="611"/>
      <point x="164" y="355" type="curve" smooth="yes"/>
      <point x="164" y="86"/>
      <point x="268" y="-25"/>
      <point x="465" y="-25" type="curve" smooth="yes"/>
      <point x="626" y="-25"/>
      <point x="697" y="48"/>
      <point x="740" y="162" type="curve"/>
      <point x="679" y="184" type="line"/>
      <point x="643" y="102"/>
      <point x="603" y="36"/>
      <point x="472" y="36" type="curve" smooth="yes"/>
      <point x="319" y="36"/>
      <point x="256" y="117"/>
    </contour>
  </outline>
</glyph>
<glyph name="OE.alt" format="2">
  <advance width="1185"/>
  <outline>
    <contour>
      <point x="1108" y="209" type="line"/>
      <point x="1040" y="209" type="line"/>
      <point x="1024" y="104" type="line" smooth="yes"/>
      <point x="1019" y="68"/>
      <point x="983" y="59"/>
      <point x="892" y="59" type="curve"/>
      <point x="692" y="59" type="line"/>
      <point x="692" y="651" type="line"/>
      <point x="875" y="651" type="line"/>
      <point x="966" y="651"/>
      <point x="1001" y="642"/>
      <point x="1008" y="606" type="curve" smooth="yes"/>
      <point x="1021" y="526" type="line"/>
      <point x="1086" y="526" type="line"/>
      <point x="1086" y="710" type="line"/>
      <point x="471" y="710" type="line" smooth="yes"/>
      <point x="212" y="710"/>
      <point x="65" y="588"/>
      <point x="65" y="351" type="curve" smooth="yes"/>
      <point x="65" y="113"/>
      <point x="212" y="0"/>
      <point x="471" y="0" type="curve" smooth="yes"/>
      <point x="1108" y="0" type="line"/>
    </contour>
    <contour>
      <point x="164" y="351" type="curve" smooth="yes"/>
      <point x="164" y="559"/>
      <point x="262" y="651"/>
      <point x="471" y="651" type="curve" smooth="yes"/>
      <point x="599" y="651" type="line"/>
      <point x="599" y="59" type="line"/>
      <point x="471" y="59" type="line" smooth="yes"/>
      <point x="262" y="59"/>
      <point x="164" y="143"/>
    </contour>
    <contour>
      <point x="673" y="391" type="line"/>
      <point x="673" y="334" type="line"/>
      <point x="846" y="334" type="line" smooth="yes"/>
      <point x="877" y="334"/>
      <point x="888" y="309"/>
      <point x="888" y="275" type="curve" smooth="yes"/>
      <point x="888" y="255" type="line"/>
      <point x="955" y="255" type="line"/>
      <point x="955" y="471" type="line"/>
      <point x="888" y="471" type="line"/>
      <point x="888" y="451" type="line" smooth="yes"/>
      <point x="888" y="416"/>
      <point x="877" y="391"/>
      <point x="846" y="391" type="curve" smooth="yes"/>
    </contour>
  </outline>
</glyph>
<glyph name="acute.pl" format="2">
  <advance width="530"/>
  <anchor x="242" y="499" name="_top"/>
  <outline>
    <contour>
      <point x="248" y="808" type="curve" smooth="yes"/>
      <point x="216" y="686" type="line"/>
      <point x="216" y="661" type="line"/>
      <point x="247" y="661" type="line"/>
      <point x="333" y="753" type="line" smooth="yes"/>
      <point x="357" y="778"/>
      <point x="372" y="798"/>
      <point x="372" y="822" type="curve" smooth="yes"/>
      <point x="372" y="849"/>
      <point x="354" y="870"/>
      <point x="318" y="870" type="curve" smooth="yes"/>
      <point x="278" y="870"/>
      <point x="258" y="845"/>
    </contour>
  </outline>
</glyph>
<glyph name="breve.uc" format="2">
  <advance width="530"/>
  <anchor x="265" y="694" name="_top"/>
  <outline>
    <contour>
      <point x="266" y="797" type="curve" smooth="yes"/>
      <point x="152" y="797"/>
      <point x="86" y="843"/>
      <point x="83" y="965" type="curve"/>
      <point x="154" y="965" type="line"/>
      <point x="159" y="892"/>
      <point x="184" y="873"/>
      <point x="266" y="873" type="curve" smooth="yes"/>
      <point x="353" y="873"/>
      <point x="378" y="892"/>
      <point x="382" y="965" type="curve"/>
      <point x="448" y="965" type="line"/>
      <point x="446" y="843"/>
      <point x="382" y="797"/>
    </contour>
  </outline>
</glyph>
<glyph name="breve_grave.uc" format="2">
  <advance width="575"/>
  <anchor x="256" y="744" name="_top"/>
  <outline>
    <contour>
      <point x="228" y="1100" type="curve" smooth="yes"/>
      <point x="321" y="997" type="line"/>
      <point x="321" y="972" type="line"/>
      <point x="283" y="972" type="line"/>
      <point x="160" y="1035" type="line" smooth="yes"/>
      <point x="125" y="1052"/>
      <point x="97" y="1072"/>
      <point x="97" y="1101" type="curve" smooth="yes"/>
      <point x="97" y="1124"/>
      <point x="119" y="1148"/>
      <point x="151" y="1148" type="curve" smooth="yes"/>
      <point x="184" y="1148"/>
      <point x="204" y="1126"/>
    </contour>
    <component base="breve.uc"/>
  </outline>
</glyph>
<glyph name="caron.alt" format="2">
  <advance width="530"/>
  <anchor x="169" y="574" name="_right"/>
  <outline>
    <contour>
      <point x="270" y="517" type="line"/>
      <point x="200" y="517" type="line"/>
      <point x="200" y="541" type="line"/>
      <point x="217" y="710" type="line"/>
      <point x="326" y="710" type="line"/>
    </contour>
  </outline>
</glyph>
<glyph name="circumflex_acute" format="2">
  <advance width="571"/>
  <anchor x="265" y="558" name="_top"/>
  <outline>
    <contour>
      <point x="498" y="944" type="curve" smooth="yes"/>
      <point x="432" y="826" type="line"/>
      <point x="432" y="801" type="line"/>
      <point x="461" y="801" type="line"/>
      <point x="580" y="891" type="line" smooth="yes"/>
      <point x="607" y="911"/>
      <point x="626" y="934"/>
      <point x="626" y="958" type="curve" smooth="yes"/>
      <point x="626" y="983"/>
      <point x="606" y="1004"/>
      <point x="572" y="1004" type="curve" smooth="yes"/>
      <point x="537" y="1004"/>
      <point x="516" y="976"/>
    </contour>
    <component base="circumflex"/>
  </outline>
</glyph>
<glyph name="circumflex_grave" format="2">
  <advance width="640"/>
  <anchor x="263" y="564" name="_top"/>
  <outline>
    <contour>
      <point x="486" y="943" type="curve" smooth="yes"/>
      <point x="552" y="825" type="line"/>
      <point x="552" y="800" type="line"/>
      <point x="523" y="800" type="line"/>
      <point x="404" y="890" type="line" smooth="yes"/>
      <point x="377" y="910"/>
      <point x="358" y="933"/>
      <point x="358" y="957" type="curve" smooth="yes"/>
      <point x="358" y="982"/>
      <point x="378" y="1003"/>
      <point x="412" y="1003" type="curve" smooth="yes"/>
      <point x="447" y="1003"/>
      <point x="468" y="975"/>
    </contour>
    <component base="circumflex"/>
  </outline>
</glyph>
<glyph name="colonmonetary" format="2">
  <advance width="594"/>
  <outline>
    <contour>
      <point x="337" y="700" type="curve" smooth="yes"/>
      <point x="131" y="700"/>
      <point x="22" y="587"/>
      <point x="22" y="355" type="curve" smooth="yes"/>
      <point x="22" y="119"/>
      <point x="111" y="10"/>
      <point x="319" y="10" type="curve" smooth="yes"/>
      <point x="492" y="10"/>
      <point x="547" y="106"/>
      <point x="575" y="250" type="curve"/>
      <point x="518" y="265" type="line"/>
      <point x="491" y="147"/>
      <point x="469" y="63"/>
      <point x="324" y="63" type="curve" smooth="yes"/>
      <point x="140" y="63"/>
      <point x="107" y="147"/>
      <point x="107" y="355" type="curve" smooth="yes"/>
      <point x="107" y="561"/>
      <point x="160" y="648"/>
      <point x="337" y="648" type="curve" smooth="yes"/>
      <point x="450" y="648"/>
      <point x="510" y="621"/>
      <point x="535" y="607" type="curve"/>
      <point x="532" y="628"/>
      <point x="517" y="637"/>
      <point x="495" y="645" type="curve"/>
      <point x="495" y="463" type="line"/>
      <point x="570" y="463" type="line"/>
      <point x="570" y="652" type="line"/>
      <point x="542" y="665"/>
      <point x="457" y="700"/>
    </contour>
    <contour>
      <point x="304" y="790" type="line"/>
      <point x="278" y="668" type="line"/>
      <point x="281" y="651" type="line"/>
      <point x="166" y="93" type="line"/>
      <point x="149" y="83" type="line"/>
      <point x="107" y="-120" type="line"/>
      <point x="172" y="-120" type="line"/>
      <point x="210" y="56" type="line"/>
      <point x="203" y="68" type="line"/>
      <point x="326" y="658" type="line"/>
      <point x="346" y="681" type="line"/>
      <point x="370" y="790" type="line"/>
    </contour>
    <contour>
      <point x="445" y="790" type="line"/>
      <point x="420" y="680" type="line"/>
      <point x="428" y="663" type="line"/>
      <point x="301" y="49" type="line"/>
      <point x="283" y="39" type="line"/>
      <point x="248" y="-120" type="line"/>
      <point x="313" y="-120" type="line"/>
      <point x="345" y="28" type="line"/>
      <point x="342" y="43" type="line"/>
      <point x="469" y="656" type="line"/>
      <point x="485" y="667" type="line"/>
      <point x="511" y="790" type="line"/>
    </contour>
  </outline>
</glyph>
<glyph name="currency.proportional" format="2">
  <advance width="638"/>
  <outline>
    <contour>
      <point x="447" y="373" type="curve" smooth="yes"/>
      <point x="447" y="281"/>
      <point x="399" y="241"/>
      <point x="319" y="241" type="curve" smooth="yes"/>
      <point x="239" y="241"/>
      <point x="191" y="282"/>
      <point x="191" y="373" type="curve" smooth="yes"/>
      <point x="191" y="465"/>
      <point x="239" y="506"/>
      <point x="319" y="506" type="curve" smooth="yes"/>
      <point x="399" y="506"/>
      <point x="447" y="465"/>
    </contour>
    <contour>
      <point x="111" y="373" type="curve" smooth="yes"/>
      <point x="111" y="263"/>
      <point x="211" y="175"/>
      <point x="319" y="175" type="curve" smooth="yes"/>
      <point x="427" y="175"/>
      <point x="527" y="263"/>
      <point x="527" y="373" type="curve" smooth="yes"/>
      <point x="527" y="485"/>
      <point x="427" y="572"/>
      <point x="319" y="572" type="curve" smooth="yes"/>
      <point x="211" y="572"/>
      <point x="111" y="485"/>
    </contour>
    <contour>
      <point x="40" y="590" type="line"/>
      <point x="156" y="480" type="line"/>
      <point x="216" y="522" type="line"/>
      <point x="92" y="639" type="line"/>
    </contour>
    <contour>
      <point x="598" y="590" type="line"/>
      <point x="546" y="639" type="line"/>
      <point x="422" y="522" type="line"/>
      <point x="482" y="480" type="line"/>
    </contour>
    <contour>
      <point x="40" y="156" type="line"/>
      <point x="92" y="107" type="line"/>
      <point x="216" y="224" type="line"/>
      <point x="156" y="266" type="line"/>
    </contour>
    <contour>
      <point x="598" y="156" type="line"/>
      <point x="482" y="266" type="line"/>
      <point x="422" y="224" type="line"/>
      <point x="546" y="107" type="line"/>
    </contour>
  </outline>
</glyph>
<glyph name="f_f_i.alt" format="2">
  <advance width="1222"/>
  <outline>
    <contour>
      <point x="51" y="565" type="line"/>
      <point x="51" y="506" type="line"/>
      <point x="508" y="506" type="line"/>
      <point x="508" y="565" type="line"/>
    </contour>
    <contour>
      <point x="463" y="565" type="line"/>
      <point x="463" y="506" type="line"/>
      <point x="929" y="506" type="line"/>
      <point x="929" y="565" type="line"/>
    </contour>
    <contour>
      <point x="890" y="0" type="line"/>
      <point x="1184" y="0" type="line"/>
      <point x="1184" y="49" type="line"/>
      <point x="1180" y="49" type="line" smooth="yes"/>
      <point x="1120" y="49"/>
      <point x="1088" y="65"/>
      <point x="1088" y="125" type="curve" smooth="yes"/>
      <point x="1088" y="565" type="line"/>
      <point x="878" y="565" type="line"/>
      <point x="861" y="506" type="line"/>
      <point x="875" y="506" type="line" smooth="yes"/>
      <point x="943" y="506"/>
      <point x="999" y="494"/>
      <point x="999" y="463" type="curve" smooth="yes"/>
      <point x="999" y="59" type="line" smooth="yes"/>
      <point x="999" y="52"/>
      <point x="944" y="49"/>
      <point x="912" y="49" type="curve" smooth="yes"/>
      <point x="890" y="49" type="line"/>
    </contour>
    <contour>
      <point x="674" y="59" type="curve" smooth="yes"/>
      <point x="674" y="606" type="line" smooth="yes"/>
      <point x="674" y="692"/>
      <point x="723" y="730"/>
      <point x="845" y="730" type="curve" smooth="yes"/>
      <point x="926" y="730"/>
      <point x="982" y="714"/>
      <point x="1023" y="702" type="curve"/>
      <point x="1017" y="712"/>
      <point x="1005" y="733"/>
      <point x="968" y="734" type="curve"/>
      <point x="968" y="652" type="line"/>
      <point x="1067" y="652" type="line"/>
      <point x="1067" y="756" type="line"/>
      <point x="1029" y="771"/>
      <point x="948" y="790"/>
      <point x="846" y="790" type="curve" smooth="yes"/>
      <point x="708" y="790"/>
      <point x="586" y="749"/>
      <point x="586" y="614" type="curve"/>
      <point x="586" y="115" type="line"/>
      <point x="586" y="63"/>
      <point x="548" y="49"/>
      <point x="490" y="49" type="curve" smooth="yes"/>
      <point x="465" y="49" type="line"/>
      <point x="465" y="0" type="line"/>
      <point x="787" y="0" type="line"/>
      <point x="787" y="49" type="line"/>
      <point x="762" y="49" type="line" smooth="yes"/>
      <point x="729" y="49"/>
      <point x="674" y="52"/>
    </contour>
    <contour>
      <point x="51" y="0" type="line"/>
      <point x="375" y="0" type="line"/>
      <point x="375" y="49" type="line"/>
      <point x="357" y="49" type="line" smooth="yes"/>
      <point x="324" y="49"/>
      <point x="262" y="52"/>
      <point x="262" y="59" type="curve" smooth="yes"/>
      <point x="262" y="608" type="line" smooth="yes"/>
      <point x="262" y="686"/>
      <point x="306" y="715"/>
      <point x="432" y="715" type="curve" smooth="yes"/>
      <point x="538" y="715"/>
      <point x="612" y="687"/>
      <point x="640" y="657" type="curve"/>
      <point x="635" y="680"/>
      <point x="622" y="703"/>
      <point x="586" y="699" type="curve"/>
      <point x="586" y="611" type="line"/>
      <point x="664" y="611" type="line"/>
      <point x="664" y="717" type="line"/>
      <point x="636" y="739"/>
      <point x="558" y="775"/>
      <point x="432" y="775" type="curve" smooth="yes"/>
      <point x="294" y="775"/>
      <point x="174" y="743"/>
      <point x="174" y="616" type="curve" smooth="yes"/>
      <point x="174" y="125" type="line" smooth="yes"/>
      <point x="174" y="65"/>
      <point x="139" y="49"/>
      <point x="76" y="49" type="curve" smooth="yes"/>
      <point x="51" y="49" type="line"/>
    </contour>
  </outline>
</glyph>
<glyph name="f_f_j" format="2">
  <advance width="1210"/>
  <outline>
    <contour>
      <point x="51" y="565" type="line"/>
      <point x="51" y="506" type="line"/>
      <point x="498" y="506" type="line"/>
      <point x="498" y="565" type="line"/>
    </contour>
    <contour>
      <point x="1032" y="677" type="curve" smooth="yes"/>
      <point x="1073" y="677"/>
      <point x="1103" y="696"/>
      <point x="1103" y="742" type="curve" smooth="yes"/>
      <point x="1103" y="786"/>
      <point x="1073" y="807"/>
      <point x="1032" y="807" type="curve" smooth="yes"/>
      <point x="989" y="807"/>
      <point x="960" y="786"/>
      <point x="960" y="742" type="curve" smooth="yes"/>
      <point x="960" y="696"/>
      <point x="989" y="677"/>
    </contour>
    <contour>
      <point x="463" y="565" type="line"/>
      <point x="463" y="506" type="line"/>
      <point x="884" y="506" type="line"/>
      <point x="884" y="565" type="line"/>
    </contour>
    <contour>
      <point x="999" y="-78" type="line" smooth="yes"/>
      <point x="999" y="-165"/>
      <point x="958" y="-189"/>
      <point x="888" y="-189" type="curve" smooth="yes"/>
      <point x="841" y="-189"/>
      <point x="804" y="-180"/>
      <point x="782" y="-175" type="curve"/>
      <point x="782" y="-236" type="line"/>
      <point x="799" y="-241"/>
      <point x="844" y="-249"/>
      <point x="888" y="-249" type="curve" smooth="yes"/>
      <point x="988" y="-249"/>
      <point x="1088" y="-209"/>
      <point x="1088" y="-78" type="curve" smooth="yes"/>
      <point x="1088" y="565" type="line"/>
      <point x="855" y="565" type="line"/>
      <point x="844" y="506" type="line"/>
      <point x="857" y="506" type="line" smooth="yes"/>
      <point x="924" y="506"/>
      <point x="999" y="494"/>
      <point x="999" y="463" type="curve" smooth="yes"/>
    </contour>
    <contour>
      <point x="262" y="59" type="curve" smooth="yes"/>
      <point x="262" y="611" type="line" smooth="yes"/>
      <point x="262" y="687"/>
      <point x="291" y="709"/>
      <point x="364" y="709" type="curve" smooth="yes"/>
      <point x="404" y="709"/>
      <point x="443" y="702"/>
      <point x="461" y="698" type="curve"/>
      <point x="461" y="765" type="line"/>
      <point x="446" y="769"/>
      <point x="400" y="775"/>
      <point x="358" y="775" type="curve" smooth="yes"/>
      <point x="258" y="775"/>
      <point x="174" y="745"/>
      <point x="174" y="619" type="curve" smooth="yes"/>
      <point x="174" y="125" type="line" smooth="yes"/>
      <point x="174" y="65"/>
      <point x="139" y="49"/>
      <point x="76" y="49" type="curve" smooth="yes"/>
      <point x="51" y="49" type="line"/>
      <point x="51" y="0" type="line"/>
      <point x="375" y="0" type="line"/>
      <point x="375" y="49" type="line"/>
      <point x="349" y="49" type="line" smooth="yes"/>
      <point x="317" y="49"/>
      <point x="262" y="52"/>
    </contour>
    <contour>
      <point x="586" y="59" type="line" smooth="yes"/>
      <point x="586" y="52"/>
      <point x="531" y="49"/>
      <point x="498" y="49" type="curve" smooth="yes"/>
      <point x="475" y="49" type="line"/>
      <point x="475" y="0" type="line"/>
      <point x="787" y="0" type="line"/>
      <point x="787" y="49" type="line"/>
      <point x="762" y="49" type="line" smooth="yes"/>
      <point x="729" y="49"/>
      <point x="674" y="52"/>
      <point x="674" y="59" type="curve" smooth="yes"/>
      <point x="674" y="627" type="line" smooth="yes"/>
      <point x="674" y="702"/>
      <point x="700" y="724"/>
      <point x="763" y="724" type="curve"/>
      <point x="799" y="724"/>
      <point x="831" y="717"/>
      <point x="848" y="713" type="curve"/>
      <point x="848" y="780" type="line"/>
      <point x="834" y="784"/>
      <point x="795" y="790"/>
      <point x="756" y="790" type="curve"/>
      <point x="666" y="790"/>
      <point x="586" y="760"/>
      <point x="586" y="634" type="curve"/>
    </contour>
  </outline>
</glyph>
<glyph name="f_l" format="2">
  <advance width="813"/>
  <outline>
    <contour>
      <point x="51" y="565" type="line"/>
      <point x="51" y="506" type="line"/>
      <point x="433" y="506" type="line"/>
      <point x="433" y="565" type="line"/>
    </contour>
    <contour>
      <point x="587" y="59" type="line"/>
      <point x="587" y="52"/>
      <point x="539" y="49"/>
      <point x="501" y="49" type="curve" smooth="yes"/>
      <point x="491" y="49" type="line"/>
      <point x="491" y="0" type="line"/>
      <point x="772" y="0" type="line"/>
      <point x="772" y="49" type="line"/>
      <point x="768" y="49" type="line" smooth="yes"/>
      <point x="709" y="49"/>
      <point x="676" y="65"/>
      <point x="676" y="125" type="curve" smooth="yes"/>
      <point x="676" y="780" type="line"/>
      <point x="491" y="780" type="line"/>
      <point x="587" y="708" type="line"/>
    </contour>
    <contour>
      <point x="395" y="0" type="line"/>
      <point x="395" y="49" type="line"/>
      <point x="358" y="49" type="line" smooth="yes"/>
      <point x="325" y="49"/>
      <point x="262" y="52"/>
      <point x="262" y="59" type="curve" smooth="yes"/>
      <point x="262" y="621" type="line" smooth="yes"/>
      <point x="262" y="699"/>
      <point x="305" y="724"/>
      <point x="407" y="724" type="curve" smooth="yes"/>
      <point x="498" y="724"/>
      <point x="572" y="705"/>
      <point x="601" y="691" type="curve"/>
      <point x="601" y="739" type="line"/>
      <point x="576" y="767"/>
      <point x="502" y="790"/>
      <point x="407" y="790" type="curve" smooth="yes"/>
      <point x="271" y="790"/>
      <point x="174" y="758"/>
      <point x="174" y="631" type="curve" smooth="yes"/>
      <point x="174" y="125" type="line" smooth="yes"/>
      <point x="174" y="65"/>
      <point x="139" y="49"/>
      <point x="76" y="49" type="curve" smooth="yes"/>
      <point x="51" y="49" type="line"/>
      <point x="51" y="0" type="line"/>
    </contour>
  </outline>
</glyph>
<glyph name="five.oldprop" format="2">
  <advance width="630"/>
  <outline>
    <contour>
      <point x="303" y="-90" type="curve" smooth="yes"/>
      <point x="151" y="-90"/>
      <point x="83" y="-30"/>
      <point x="42" y="52" type="curve"/>
      <point x="95" y="90" type="line"/>
      <point x="128" y="30"/>
      <point x="171" y="-32"/>
      <point x="307" y="-32" type="curve" smooth="yes"/>
      <point x="418" y="-32"/>
      <point x="481" y="20"/>
      <point x="481" y="166" type="curve" smooth="yes"/>
      <point x="481" y="298"/>
      <point x="418" y="339"/>
      <point x="326" y="339" type="curve" smooth="yes"/>
      <point x="248" y="339"/>
      <point x="205" y="314"/>
      <point x="168" y="254" type="curve"/>
      <point x="108" y="254" type="line"/>
      <point x="108" y="639" type="line"/>
      <point x="523" y="639" type="line"/>
      <point x="498" y="566" type="line"/>
      <point x="147" y="566" type="line"/>
      <point x="172" y="619" type="line"/>
      <point x="172" y="287" type="line"/>
      <point x="169" y="276"/>
      <point x="150" y="269"/>
      <point x="151" y="290" type="curve"/>
      <point x="187" y="362"/>
      <point x="251" y="397"/>
      <point x="341" y="397" type="curve" smooth="yes"/>
      <point x="488" y="397"/>
      <point x="575" y="312"/>
      <point x="575" y="166" type="curve" smooth="yes"/>
      <point x="575" y="-5"/>
      <point x="468" y="-90"/>
    </contour>
  </outline>
</glyph>
<glyph name="five.oldtab" format="2">
  <advance width="594"/>
  <outline>
    <contour>
      <point x="278" y="-90" type="curve" smooth="yes"/>
      <point x="139" y="-90"/>
      <point x="75" y="-29"/>
      <point x="37" y="67" type="curve"/>
      <point x="101" y="98" type="line"/>
      <point x="128" y="35"/>
      <point x="165" y="-32"/>
      <point x="278" y="-32" type="curve" smooth="yes"/>
      <point x="382" y="-32"/>
      <point x="443" y="20"/>
      <point x="443" y="167" type="curve" smooth="yes"/>
      <point x="443" y="299"/>
      <point x="394" y="338"/>
      <point x="310" y="338" type="curve" smooth="yes"/>
      <point x="245" y="338"/>
      <point x="207" y="313"/>
      <point x="164" y="244" type="curve"/>
      <point x="104" y="244" type="line"/>
      <point x="104" y="639" type="line"/>
      <point x="492" y="639" type="line"/>
      <point x="467" y="566" type="line"/>
      <point x="142" y="566" type="line"/>
      <point x="168" y="619" type="line"/>
      <point x="168" y="280" type="line"/>
      <point x="166" y="277"/>
      <point x="160" y="266"/>
      <point x="147" y="264" type="curve"/>
      <point x="192" y="353"/>
      <point x="235" y="396"/>
      <point x="327" y="396" type="curve" smooth="yes"/>
      <point x="464" y="396"/>
      <point x="536" y="313"/>
      <point x="536" y="167" type="curve" smooth="yes"/>
      <point x="536" y="-5"/>
      <point x="433" y="-90"/>
    </contour>
  </outline>
</glyph>
<glyph name="grave.uc" format="2">
  <advance width="530"/>
  <anchor x="337" y="694" name="_top"/>
  <outline>
    <contour>
      <point x="311" y="921" type="curve" smooth="yes"/>
      <point x="405" y="818" type="line"/>
      <point x="405" y="793" type="line"/>
      <point x="366" y="793" type="line"/>
      <point x="243" y="856" type="line" smooth="yes"/>
      <point x="209" y="873"/>
      <point x="181" y="893"/>
      <point x="181" y="922" type="curve" smooth="yes"/>
      <point x="181" y="945"/>
      <point x="203" y="969"/>
      <point x="235" y="969" type="curve" smooth="yes"/>
      <point x="268" y="969"/>
      <point x="288" y="947"/>
    </contour>
  </outline>
</glyph>
<glyph name="hungarumlaut.uc" format="2">
  <advance width="530"/>
  <anchor x="223" y="694" name="_top"/>
  <outline>
    <contour>
      <point x="121" y="922" type="curve" smooth="yes"/>
      <point x="73" y="818" type="line"/>
      <point x="73" y="793" type="line"/>
      <point x="110" y="793" type="line"/>
      <point x="188" y="858" type="line" smooth="yes"/>
      <point x="218" y="882"/>
      <point x="239" y="901"/>
      <point x="239" y="929" type="curve" smooth="yes"/>
      <point x="239" y="953"/>
      <point x="219" y="972"/>
      <point x="187" y="972" type="curve" smooth="yes"/>
      <point x="153" y="972"/>
      <point x="135" y="953"/>
    </contour>
    <contour>
      <point x="329" y="922" type="curve" smooth="yes"/>
      <point x="283" y="818" type="line"/>
      <point x="283" y="793" type="line"/>
      <point x="321" y="793" type="line"/>
      <point x="399" y="858" type="line" smooth="yes"/>
      <point x="428" y="882"/>
      <point x="450" y="901"/>
      <point x="450" y="929" type="curve" smooth="yes"/>
      <point x="450" y="953"/>
      <point x="430" y="972"/>
      <point x="397" y="972" type="curve" smooth="yes"/>
      <point x="364" y="972"/>
      <point x="343" y="953"/>
    </contour>
  </outline>
</glyph>
<glyph name="lira.proportional" format="2">
  <advance width="691"/>
  <outline>
    <contour>
      <point x="54" y="449" type="line"/>
      <point x="54" y="392" type="line"/>
      <point x="503" y="392" type="line"/>
      <point x="503" y="449" type="line"/>
    </contour>
    <contour>
      <point x="63" y="-13" type="line"/>
      <point x="211" y="50"/>
      <point x="305" y="151"/>
      <point x="305" y="259" type="curve" smooth="yes"/>
      <point x="305" y="393"/>
      <point x="217" y="447"/>
      <point x="217" y="556" type="curve" smooth="yes"/>
      <point x="217" y="649"/>
      <point x="269" y="677"/>
      <point x="385" y="677" type="curve" smooth="yes"/>
      <point x="468" y="677"/>
      <point x="525" y="660"/>
      <point x="564" y="633" type="curve"/>
      <point x="559" y="652"/>
      <point x="528" y="681"/>
      <point x="497" y="683" type="curve"/>
      <point x="497" y="553" type="line"/>
      <point x="592" y="553" type="line"/>
      <point x="592" y="693" type="line"/>
      <point x="554" y="712"/>
      <point x="486" y="735"/>
      <point x="386" y="735" type="curve" smooth="yes"/>
      <point x="219" y="735"/>
      <point x="124" y="677"/>
      <point x="124" y="548" type="curve" smooth="yes"/>
      <point x="124" y="438"/>
      <point x="228" y="374"/>
      <point x="228" y="243" type="curve" smooth="yes"/>
      <point x="228" y="168"/>
      <point x="164" y="102"/>
      <point x="63" y="57" type="curve"/>
    </contour>
    <contour>
      <point x="468" y="-10" type="curve" smooth="yes"/>
      <point x="595" y="-10"/>
      <point x="633" y="67"/>
      <point x="652" y="182" type="curve"/>
      <point x="594" y="197" type="line"/>
      <point x="572" y="103"/>
      <point x="549" y="77"/>
      <point x="469" y="77" type="curve" smooth="yes"/>
      <point x="387" y="77"/>
      <point x="338" y="123"/>
      <point x="263" y="199" type="curve"/>
      <point x="235" y="180"/>
      <point x="224" y="156"/>
      <point x="232" y="145" type="curve"/>
      <point x="329" y="48"/>
      <point x="357" y="-10"/>
    </contour>
    <contour>
      <point x="54" y="323" type="line"/>
      <point x="54" y="266" type="line"/>
      <point x="503" y="266" type="line"/>
      <point x="503" y="323" type="line"/>
    </contour>
  </outline>
</glyph>
<glyph name="minus.sub" format="2">
  <advance width="446"/>
  <outline>
    <contour>
      <point x="395" y="108" type="line"/>
      <point x="51" y="108" type="line"/>
      <point x="51" y="57" type="line"/>
      <point x="395" y="57" type="line"/>
    </contour>
  </outline>
</glyph>
<glyph name="minus.sup" format="2">
  <advance width="446"/>
  <outline>
    <contour>
      <point x="395" y="593" type="line"/>
      <point x="51" y="593" type="line"/>
      <point x="51" y="542" type="line"/>
      <point x="395" y="542" type="line"/>
    </contour>
  </outline>
</glyph>
<glyph name="naira.proportional" format="2">
  <advance width="767"/>
  <outline>
    <contour>
      <point x="207" y="698" type="line"/>
      <point x="501" y="0" type="line"/>
      <point x="606" y="0" type="line"/>
      <point x="606" y="610" type="line" smooth="yes"/>
      <point x="606" y="639"/>
      <point x="632" y="651"/>
      <point x="667" y="651" type="curve" smooth="yes"/>
      <point x="689" y="651" type="line"/>
      <point x="689" y="710" type="line"/>
      <point x="480" y="710" type="line"/>
      <point x="480" y="651" type="line"/>
      <point x="495" y="651" type="line" smooth="yes"/>
      <point x="528" y="651"/>
      <point x="547" y="645"/>
      <point x="547" y="638" type="curve" smooth="yes"/>
      <point x="547" y="35" type="line"/>
      <point x="567" y="18" type="line"/>
      <point x="277" y="710" type="line"/>
      <point x="78" y="710" type="line"/>
      <point x="78" y="651" type="line"/>
      <point x="100" y="651" type="line" smooth="yes"/>
      <point x="135" y="651"/>
      <point x="161" y="644"/>
      <point x="161" y="615" type="curve" smooth="yes"/>
      <point x="161" y="100" type="line" smooth="yes"/>
      <point x="161" y="71"/>
      <point x="135" y="59"/>
      <point x="100" y="59" type="curve" smooth="yes"/>
      <point x="78" y="59" type="line"/>
      <point x="78" y="0" type="line"/>
      <point x="289" y="0" type="line"/>
      <point x="289" y="59" type="line"/>
      <point x="275" y="59" type="line" smooth="yes"/>
      <point x="242" y="59"/>
      <point x="220" y="65"/>
      <point x="220" y="72" type="curve" smooth="yes"/>
      <point x="220" y="696" type="line"/>
    </contour>
    <contour>
      <point x="186" y="493" type="line"/>
      <point x="39" y="493" type="line"/>
      <point x="39" y="429" type="line"/>
      <point x="184" y="429" type="line"/>
    </contour>
    <contour>
      <point x="567" y="214" type="line"/>
      <point x="728" y="214" type="line"/>
      <point x="728" y="278" type="line"/>
      <point x="569" y="278" type="line"/>
    </contour>
    <contour>
      <point x="39" y="214" type="line"/>
      <point x="453" y="214" type="line"/>
      <point x="453" y="241" type="line"/>
      <point x="194" y="265" type="line"/>
      <point x="194" y="278" type="line"/>
      <point x="39" y="278" type="line"/>
    </contour>
    <contour>
      <point x="728" y="429" type="line"/>
      <point x="728" y="493" type="line"/>
      <point x="328" y="493" type="line"/>
      <point x="327" y="466" type="line"/>
      <point x="563" y="441" type="line"/>
      <point x="575" y="429" type="line"/>
    </contour>
  </outline>
</glyph>
<glyph name="nine.oldtab" format="2">
  <advance width="593"/>
  <outline>
    <contour>
      <point x="98" y="-45" type="line"/>
      <point x="339" y="-18"/>
      <point x="454" y="56"/>
      <point x="454" y="344" type="curve" smooth="yes"/>
      <point x="454" y="534"/>
      <point x="400" y="591"/>
      <point x="295" y="591" type="curve" smooth="yes"/>
      <point x="193" y="591"/>
      <point x="155" y="517"/>
      <point x="155" y="406" type="curve" smooth="yes"/>
      <point x="155" y="311"/>
      <point x="175" y="239"/>
      <point x="283" y="239" type="curve" smooth="yes"/>
      <point x="364" y="239"/>
      <point x="401" y="275"/>
      <point x="478" y="411" type="curve"/>
      <point x="479" y="369" type="line"/>
      <point x="415" y="241"/>
      <point x="361" y="181"/>
      <point x="264" y="181" type="curve" smooth="yes"/>
      <point x="132" y="181"/>
      <point x="60" y="270"/>
      <point x="60" y="406" type="curve" smooth="yes"/>
      <point x="60" y="548"/>
      <point x="145" y="649"/>
      <point x="294" y="649" type="curve" smooth="yes"/>
      <point x="450" y="649"/>
      <point x="545" y="563"/>
      <point x="545" y="344" type="curve" smooth="yes"/>
      <point x="545" y="45"/>
      <point x="397" y="-72"/>
      <point x="108" y="-101" type="curve"/>
    </contour>
  </outline>
</glyph>
<glyph name="one.linprop" format="2">
  <advance width="584"/>
  <outline>
    <contour>
      <point x="367" y="89" type="curve" smooth="yes"/>
      <point x="367" y="710" type="line"/>
      <point x="305" y="710" type="line"/>
      <point x="268" y="655"/>
      <point x="194" y="632"/>
      <point x="88" y="630" type="curve"/>
      <point x="88" y="565" type="line"/>
      <point x="185" y="564"/>
      <point x="274" y="596"/>
      <point x="293" y="654" type="curve"/>
      <point x="278" y="642" type="line"/>
      <point x="278" y="89" type="line" smooth="yes"/>
      <point x="278" y="60"/>
      <point x="235" y="53"/>
      <point x="165" y="53" type="curve" smooth="yes"/>
      <point x="106" y="53" type="line"/>
      <point x="106" y="0" type="line"/>
      <point x="537" y="0" type="line"/>
      <point x="537" y="53" type="line"/>
      <point x="491" y="53" type="line" smooth="yes"/>
      <point x="414" y="53"/>
      <point x="367" y="60"/>
    </contour>
  </outline>
</glyph>
<glyph name="one.lintab" format="2">
  <advance width="593"/>
  <outline>
    <contour>
      <point x="370" y="89" type="curve" smooth="yes"/>
      <point x="370" y="710" type="line"/>
      <point x="306" y="710" type="line"/>
      <point x="272" y="646"/>
      <point x="201" y="626"/>
      <point x="86" y="626" type="curve"/>
      <point x="86" y="556" type="line"/>
      <point x="187" y="555"/>
      <point x="275" y="591"/>
      <point x="293" y="664" type="curve"/>
      <point x="278" y="642" type="line"/>
      <point x="278" y="89" type="line" smooth="yes"/>
      <point x="278" y="60"/>
      <point x="235" y="53"/>
      <point x="165" y="53" type="curve" smooth="yes"/>
      <point x="104" y="53" type="line"/>
      <point x="104" y="0" type="line"/>
      <point x="542" y="0" type="line"/>
      <point x="542" y="53" type="line"/>
      <point x="493" y="53" type="line"/>
      <point x="417" y="53"/>
      <point x="370" y="60"/>
    </contour>
  </outline>
</glyph>
<glyph name="one.oldtab" format="2">
  <advance width="594"/>
  <outline>
    <contour>
      <point x="373" y="92" type="curve" smooth="yes"/>
      <point x="373" y="639" type="line"/>
      <point x="312" y="639" type="line"/>
      <point x="275" y="558"/>
      <point x="206" y="536"/>
      <point x="86" y="533" type="curve"/>
      <point x="86" y="463" type="line"/>
      <point x="197" y="463"/>
      <point x="281" y="501"/>
      <point x="297" y="585" type="curve"/>
      <point x="283" y="571" type="line"/>
      <point x="283" y="92" type="line" smooth="yes"/>
      <point x="283" y="63"/>
      <point x="241" y="56"/>
      <point x="170" y="56" type="curve" smooth="yes"/>
      <point x="108" y="56" type="line"/>
      <point x="108" y="0" type="line"/>
      <point x="533" y="0" type="line"/>
      <point x="533" y="56" type="line"/>
      <point x="496" y="56" type="line"/>
      <point x="419" y="56"/>
      <point x="373" y="63"/>
    </contour>
  </outline>
</glyph>
<glyph name="peso.proportional" format="2">
  <advance width="732"/>
  <outline>
    <contour>
      <point x="63" y="494" type="line"/>
      <point x="63" y="431" type="line"/>
      <point x="190" y="431" type="line"/>
      <point x="215" y="442" type="line"/>
      <point x="535" y="442" type="line"/>
      <point x="551" y="431" type="line"/>
      <point x="711" y="431" type="line"/>
      <point x="711" y="494" type="line"/>
      <point x="564" y="494" type="line"/>
      <point x="528" y="483" type="line"/>
      <point x="211" y="483" type="line"/>
      <point x="194" y="494" type="line"/>
    </contour>
    <contour>
      <point x="63" y="0" type="line"/>
      <point x="337" y="0" type="line"/>
      <point x="337" y="59" type="line"/>
      <point x="314" y="59" type="line" smooth="yes"/>
      <point x="282" y="59"/>
      <point x="243" y="62"/>
      <point x="243" y="69" type="curve" smooth="yes"/>
      <point x="243" y="219" type="line"/>
      <point x="328" y="219" type="line" smooth="yes"/>
      <point x="493" y="219"/>
      <point x="589" y="306"/>
      <point x="589" y="469" type="curve" smooth="yes"/>
      <point x="589" y="633"/>
      <point x="498" y="710"/>
      <point x="333" y="710" type="curve" smooth="yes"/>
      <point x="63" y="710" type="line"/>
      <point x="63" y="651" type="line"/>
      <point x="74" y="651" type="line" smooth="yes"/>
      <point x="122" y="651"/>
      <point x="159" y="644"/>
      <point x="159" y="615" type="curve" smooth="yes"/>
      <point x="159" y="95" type="line" smooth="yes"/>
      <point x="159" y="66"/>
      <point x="122" y="59"/>
      <point x="74" y="59" type="curve" smooth="yes"/>
      <point x="63" y="59" type="line"/>
    </contour>
    <contour>
      <point x="332" y="651" type="line" smooth="yes"/>
      <point x="461" y="651"/>
      <point x="505" y="601"/>
      <point x="505" y="468" type="curve" smooth="yes"/>
      <point x="505" y="336"/>
      <point x="461" y="276"/>
      <point x="327" y="276" type="curve" smooth="yes"/>
      <point x="243" y="276" type="line"/>
      <point x="243" y="651" type="line"/>
    </contour>
  </outline>
</glyph>
<glyph name="seven.linprop" format="2">
  <advance width="631"/>
  <outline>
    <contour>
      <point x="288" y="637" type="line" smooth="yes"/>
      <point x="197" y="637"/>
      <point x="159" y="630"/>
      <point x="156" y="594" type="curve" smooth="yes"/>
      <point x="147" y="492" type="line"/>
      <point x="80" y="492" type="line"/>
      <point x="80" y="710" type="line"/>
      <point x="582" y="710" type="line"/>
      <point x="582" y="635" type="line"/>
      <point x="443" y="468"/>
      <point x="346" y="328"/>
      <point x="324" y="0" type="curve"/>
      <point x="226" y="0" type="line"/>
      <point x="254" y="325"/>
      <point x="447" y="577"/>
      <point x="528" y="649" type="curve"/>
      <point x="539" y="637" type="line"/>
    </contour>
  </outline>
</glyph>
<glyph name="seven.midprop" format="2">
  <advance width="631"/>
  <outline>
    <contour>
      <point x="288" y="595" type="line" smooth="yes"/>
      <point x="197" y="595"/>
      <point x="158" y="588"/>
      <point x="156" y="552" type="curve" smooth="yes"/>
      <point x="146" y="450" type="line"/>
      <point x="79" y="450" type="line"/>
      <point x="79" y="667" type="line"/>
      <point x="582" y="667" type="line"/>
      <point x="582" y="592" type="line"/>
      <point x="443" y="425"/>
      <point x="346" y="285"/>
      <point x="323" y="-46" type="curve"/>
      <point x="226" y="-46" type="line"/>
      <point x="253" y="283"/>
      <point x="446" y="534"/>
      <point x="528" y="607" type="curve"/>
      <point x="539" y="595" type="line"/>
    </contour>
  </outline>
</glyph>
<glyph name="sterling.alt" format="2">
  <advance width="594"/>
  <outline>
    <contour>
      <point x="36" y="0" type="line"/>
      <point x="555" y="0" type="line"/>
      <point x="555" y="228" type="line"/>
      <point x="489" y="228" type="line"/>
      <point x="473" y="113" type="line" smooth="yes"/>
      <point x="467" y="77"/>
      <point x="431" y="68"/>
      <point x="340" y="68" type="curve" smooth="yes"/>
      <point x="65" y="68" type="line"/>
      <point x="104" y="57" type="line"/>
      <point x="214" y="115"/>
      <point x="268" y="175"/>
      <point x="268" y="255" type="curve" smooth="yes"/>
      <point x="268" y="394"/>
      <point x="180" y="447"/>
      <point x="180" y="557" type="curve" smooth="yes"/>
      <point x="180" y="649"/>
      <point x="242" y="677"/>
      <point x="345" y="677" type="curve" smooth="yes"/>
      <point x="423" y="677"/>
      <point x="479" y="660"/>
      <point x="514" y="633" type="curve"/>
      <point x="509" y="652"/>
      <point x="478" y="681"/>
      <point x="447" y="683" type="curve"/>
      <point x="447" y="526" type="line"/>
      <point x="542" y="526" type="line"/>
      <point x="542" y="693" type="line"/>
      <point x="507" y="712"/>
      <point x="440" y="735"/>
      <point x="343" y="735" type="curve" smooth="yes"/>
      <point x="190" y="735"/>
      <point x="87" y="678"/>
      <point x="87" y="549" type="curve" smooth="yes"/>
      <point x="87" y="438"/>
      <point x="191" y="374"/>
      <point x="191" y="239" type="curve" smooth="yes"/>
      <point x="191" y="162"/>
      <point x="124" y="115"/>
      <point x="36" y="70" type="curve"/>
    </contour>
    <contour>
      <point x="34" y="380" type="line"/>
      <point x="34" y="323" type="line"/>
      <point x="446" y="323" type="line"/>
      <point x="446" y="380" type="line"/>
    </contour>
  </outline>
</glyph>
<glyph name="two.linprop" format="2">
  <advance width="630"/>
  <outline>
    <contour>
      <point x="313" y="735" type="curve" smooth="yes"/>
      <point x="468" y="735"/>
      <point x="551" y="673"/>
      <point x="551" y="534" type="curve" smooth="yes"/>
      <point x="551" y="352"/>
      <point x="301" y="198"/>
      <point x="92" y="49" type="curve"/>
      <point x="82" y="49"/>
      <point x="78" y="62"/>
      <point x="88" y="68" type="curve"/>
      <point x="371" y="68" type="line" smooth="yes"/>
      <point x="458" y="68"/>
      <point x="493" y="75"/>
      <point x="496" y="109" type="curve" smooth="yes"/>
      <point x="506" y="206" type="line"/>
      <point x="573" y="206" type="line"/>
      <point x="573" y="0" type="line"/>
      <point x="59" y="0" type="line"/>
      <point x="59" y="91" type="line"/>
      <point x="288" y="267"/>
      <point x="457" y="365"/>
      <point x="457" y="538" type="curve" smooth="yes"/>
      <point x="457" y="652"/>
      <point x="402" y="678"/>
      <point x="307" y="678" type="curve" smooth="yes"/>
      <point x="226" y="678"/>
      <point x="165" y="653"/>
      <point x="131" y="615" type="curve"/>
      <point x="135" y="642"/>
      <point x="178" y="678"/>
      <point x="178" y="656" type="curve" smooth="yes"/>
      <point x="178" y="518" type="line"/>
      <point x="85" y="518" type="line"/>
      <point x="85" y="656" type="line"/>
      <point x="118" y="690"/>
      <point x="202" y="735"/>
    </contour>
  </outline>
</glyph>
<glyph name="two.oldtab" format="2">
  <advance width="594"/>
  <outline>
    <contour>
      <point x="538" y="0" type="line"/>
      <point x="67" y="0" type="line"/>
      <point x="67" y="92" type="line"/>
      <point x="308" y="263"/>
      <point x="424" y="309"/>
      <point x="424" y="465" type="curve" smooth="yes"/>
      <point x="424" y="570"/>
      <point x="367" y="592"/>
      <point x="287" y="592" type="curve" smooth="yes"/>
      <point x="219" y="592"/>
      <point x="163" y="566"/>
      <point x="132" y="537" type="curve"/>
      <point x="135" y="555"/>
      <point x="178" y="592"/>
      <point x="178" y="578" type="curve" smooth="yes"/>
      <point x="178" y="423" type="line"/>
      <point x="86" y="423" type="line"/>
      <point x="86" y="578" type="line"/>
      <point x="117" y="603"/>
      <point x="196" y="649"/>
      <point x="297" y="649" type="curve" smooth="yes"/>
      <point x="433" y="649"/>
      <point x="518" y="596"/>
      <point x="518" y="465" type="curve" smooth="yes"/>
      <point x="518" y="301"/>
      <point x="316" y="189"/>
      <point x="101" y="51" type="curve"/>
      <point x="89" y="43"/>
      <point x="86" y="65"/>
      <point x="97" y="71" type="curve"/>
      <point x="538" y="71" type="line"/>
    </contour>
  </outline>
</glyph>
<glyph name="won.proportional" format="2">
  <advance width="945"/>
  <outline>
    <contour>
      <point x="61" y="710" type="line"/>
      <point x="61" y="657" type="line"/>
      <point x="75" y="657" type="line" smooth="yes"/>
      <point x="99" y="657"/>
      <point x="126" y="654"/>
      <point x="132" y="620" type="curve" smooth="yes"/>
      <point x="255" y="0" type="line"/>
      <point x="330" y="0" type="line"/>
      <point x="487" y="703" type="line"/>
      <point x="459" y="707" type="line"/>
      <point x="619" y="0" type="line"/>
      <point x="706" y="0" type="line"/>
      <point x="815" y="614" type="line" smooth="yes"/>
      <point x="821" y="648"/>
      <point x="848" y="657"/>
      <point x="872" y="657" type="curve" smooth="yes"/>
      <point x="886" y="657" type="line"/>
      <point x="886" y="710" type="line"/>
      <point x="710" y="710" type="line"/>
      <point x="710" y="657" type="line"/>
      <point x="725" y="657" type="line" smooth="yes"/>
      <point x="750" y="657"/>
      <point x="763" y="650"/>
      <point x="763" y="639" type="curve"/>
      <point x="656" y="8" type="line"/>
      <point x="682" y="10" type="line"/>
      <point x="524" y="710" type="line"/>
      <point x="436" y="710" type="line"/>
      <point x="281" y="12" type="line"/>
      <point x="317" y="15" type="line"/>
      <point x="198" y="647" type="line"/>
      <point x="198" y="654"/>
      <point x="214" y="657"/>
      <point x="236" y="657" type="curve" smooth="yes"/>
      <point x="251" y="657" type="line"/>
      <point x="251" y="710" type="line"/>
    </contour>
    <contour>
      <point x="421" y="510" type="line"/>
      <point x="42" y="510" type="line"/>
      <point x="42" y="441" type="line"/>
      <point x="200" y="441" type="line"/>
      <point x="195" y="453" type="line"/>
      <point x="424" y="484" type="line"/>
    </contour>
    <contour>
      <point x="904" y="510" type="line"/>
      <point x="534" y="510" type="line"/>
      <point x="531" y="484" type="line"/>
      <point x="769" y="453" type="line"/>
      <point x="760" y="441" type="line"/>
      <point x="904" y="441" type="line"/>
    </contour>
    <contour>
      <point x="341" y="236" type="line"/>
      <point x="604" y="236" type="line"/>
      <point x="598" y="256" type="line"/>
      <point x="475" y="291" type="line"/>
      <point x="352" y="256" type="line"/>
    </contour>
    <contour>
      <point x="210" y="299" type="line"/>
      <point x="42" y="299" type="line"/>
      <point x="42" y="230" type="line"/>
      <point x="221" y="230" type="line"/>
    </contour>
    <contour>
      <point x="736" y="230" type="line"/>
      <point x="904" y="230" type="line"/>
      <point x="904" y="299" type="line"/>
      <point x="747" y="299" type="line"/>
    </contour>
  </outline>
</glyph>
<glyph name="yen.proportional" format="2">
  <advance width="678"/>
  <outline>
    <contour>
      <point x="62" y="386" type="line"/>
      <point x="62" y="332" type="line"/>
      <point x="623" y="332" type="line"/>
      <point x="623" y="386" type="line"/>
    </contour>
    <contour>
      <point x="62" y="216" type="line"/>
      <point x="62" y="162" type="line"/>
      <point x="623" y="162" type="line"/>
      <point x="623" y="216" type="line"/>
    </contour>
    <contour>
      <point x="300" y="379" type="line"/>
      <point x="300" y="95" type="line" smooth="yes"/>
      <point x="300" y="66"/>
      <point x="261" y="59"/>
      <point x="207" y="59" type="curve" smooth="yes"/>
      <point x="183" y="59" type="line"/>
      <point x="183" y="0" type="line"/>
      <point x="502" y="0" type="line"/>
      <point x="502" y="59" type="line"/>
      <point x="478" y="59" type="line" smooth="yes"/>
      <point x="424" y="59"/>
      <point x="385" y="66"/>
      <point x="385" y="95" type="curve" smooth="yes"/>
      <point x="385" y="379" type="line"/>
    </contour>
    <contour>
      <point x="379" y="332" type="line"/>
      <point x="568" y="604" type="line" smooth="yes"/>
      <point x="590" y="636"/>
      <point x="613" y="651"/>
      <point x="640" y="651" type="curve" smooth="yes"/>
      <point x="653" y="651" type="line"/>
      <point x="653" y="710" type="line"/>
      <point x="437" y="710" type="line"/>
      <point x="437" y="651" type="line"/>
      <point x="444" y="651" type="line" smooth="yes"/>
      <point x="475" y="651"/>
      <point x="513" y="641"/>
      <point x="513" y="628" type="curve"/>
      <point x="347" y="369" type="line"/>
      <point x="362" y="370" type="line"/>
      <point x="181" y="640" type="line"/>
      <point x="181" y="647"/>
      <point x="214" y="651"/>
      <point x="246" y="651" type="curve" smooth="yes"/>
      <point x="259" y="651" type="line"/>
      <point x="259" y="710" type="line"/>
      <point x="24" y="710" type="line"/>
      <point x="24" y="651" type="line"/>
      <point x="37" y="651" type="line" smooth="yes"/>
      <point x="67" y="651"/>
      <point x="84" y="646"/>
      <point x="105" y="617" type="curve" smooth="yes"/>
      <point x="306" y="333" type="line"/>
    </contour>
  </outline>
</glyph>
<glyph name="zero.lintab" format="2">
  <advance width="594"/>
  <outline>
    <contour>
      <point x="297" y="-11" type="curve" smooth="yes"/>
      <point x="453" y="-11"/>
      <point x="549" y="111"/>
      <point x="549" y="362" type="curve" smooth="yes"/>
      <point x="549" y="613"/>
      <point x="453" y="735"/>
      <point x="297" y="735" type="curve" smooth="yes"/>
      <point x="141" y="735"/>
      <point x="45" y="613"/>
      <point x="45" y="362" type="curve" smooth="yes"/>
      <point x="45" y="111"/>
      <point x="141" y="-11"/>
    </contour>
    <contour>
      <point x="297" y="45" type="curve" smooth="yes"/>
      <point x="180" y="45"/>
      <point x="141" y="141"/>
      <point x="141" y="362" type="curve" smooth="yes"/>
      <point x="141" y="583"/>
      <point x="180" y="679"/>
      <point x="297" y="679" type="curve" smooth="yes"/>
      <point x="414" y="679"/>
      <point x="453" y="583"/>
      <point x="453" y="362" type="curve" smooth="yes"/>
      <point x="453" y="141"/>
      <point x="414" y="45"/>
    </contour>
  </outline>
</glyph>
<glyph name="zero.midprop" format="2">
  <advance width="672"/>
  <outline>
    <contour>
      <point x="336" y="-11" type="curve" smooth="yes"/>
      <point x="503" y="-11"/>
      <point x="615" y="103"/>
      <point x="615" y="336" type="curve" smooth="yes"/>
      <point x="615" y="569"/>
      <point x="503" y="683"/>
      <point x="336" y="683" type="curve" smooth="yes"/>
      <point x="169" y="683"/>
      <point x="58" y="569"/>
      <point x="58" y="336" type="curve" smooth="yes"/>
      <point x="58" y="103"/>
      <point x="169" y="-11"/>
    </contour>
    <contour>
      <point x="336" y="45" type="curve" smooth="yes"/>
      <point x="207" y="45"/>
      <point x="154" y="134"/>
      <point x="154" y="336" type="curve" smooth="yes"/>
      <point x="154" y="538"/>
      <point x="207" y="627"/>
      <point x="336" y="627" type="curve" smooth="yes"/>
      <point x="466" y="627"/>
      <point x="519" y="538"/>
      <point x="519" y="336" type="curve" smooth="yes"/>
      <point x="519" y="134"/>
      <point x="466" y="45"/>
    </contour>
  </outline>
</glyph>
<glyph name="zero.oldprop" format="2">
  <advance width="672"/>
  <outline>
    <contour>
      <point x="336" y="-11" type="curve" smooth="yes"/>
      <point x="503" y="-11"/>
      <point x="615" y="97"/>
      <point x="615" y="319" type="curve" smooth="yes"/>
      <point x="615" y="541"/>
      <point x="503" y="649"/>
      <point x="336" y="649" type="curve" smooth="yes"/>
      <point x="169" y="649"/>
      <point x="58" y="541"/>
      <point x="58" y="319" type="curve" smooth="yes"/>
      <point x="58" y="97"/>
      <point x="169" y="-11"/>
    </contour>
    <contour>
      <point x="336" y="45" type="curve" smooth="yes"/>
      <point x="207" y="45"/>
      <point x="154" y="129"/>
      <point x="154" y="319" type="curve" smooth="yes"/>
      <point x="154" y="509"/>
      <point x="207" y="593"/>
      <point x="336" y="593" type="curve" smooth="yes"/>
      <point x="466" y="593"/>
      <point x="519" y="509"/>
      <point x="519" y="319" type="curve" smooth="yes"/>
      <point x="519" y="129"/>
      <point x="466" y="45"/>
    </contour>
  </outline>
</glyph>
<glyph name="zero.oldtab" format="2">
  <advance width="594"/>
  <outline>
    <contour>
      <point x="540" y="319" type="curve" smooth="yes"/>
      <point x="540" y="541"/>
      <point x="447" y="649"/>
      <point x="297" y="649" type="curve" smooth="yes"/>
      <point x="146" y="649"/>
      <point x="54" y="541"/>
      <point x="54" y="319" type="curve" smooth="yes"/>
      <point x="54" y="97"/>
      <point x="146" y="-11"/>
      <point x="297" y="-11" type="curve" smooth="yes"/>
      <point x="447" y="-11"/>
      <point x="540" y="97"/>
    </contour>
    <contour>
      <point x="150" y="319" type="curve" smooth="yes"/>
      <point x="150" y="510"/>
      <point x="186" y="593"/>
      <point x="297" y="593" type="curve" smooth="yes"/>
      <point x="407" y="593"/>
      <point x="444" y="510"/>
      <point x="444" y="319" type="curve" smooth="yes"/>
      <point x="444" y="128"/>
      <point x="407" y="45"/>
      <point x="297" y="45" type="curve" smooth="yes"/>
      <point x="186" y="45"/>
      <point x="150" y="128"/>
    </contour>
  </outline>
</glyph>
